<svg width="25" height="25" viewBox="0 0 25 25" fill="none" xmlns="http://www.w3.org/2000/svg">
<circle opacity="0.1" cx="12.5" cy="12.5" r="12.5" fill="#3CB371"/>
<mask id="mask0_1326_186" style="mask-type:alpha" maskUnits="userSpaceOnUse" x="0" y="0" width="25" height="25">
<circle opacity="0.1" cx="12.5" cy="12.5" r="12.5" fill="#3CB371"/>
</mask>
<g mask="url(#mask0_1326_186)">
</g>
<path d="M11.3075 19.9522C11.2597 19.9522 11.2125 19.9423 11.1687 19.9232C11.125 19.904 11.0857 19.8761 11.0533 19.841L4.19988 12.4276C4.15419 12.3782 4.1239 12.3165 4.11272 12.2501C4.10154 12.1838 4.10995 12.1156 4.13692 12.0539C4.16389 11.9922 4.20826 11.9398 4.26458 11.9029C4.32091 11.8661 4.38675 11.8465 4.45406 11.8465H7.7529C7.80243 11.8465 7.85138 11.8571 7.89646 11.8776C7.94153 11.8982 7.98167 11.9281 8.01418 11.9655L10.3046 14.6006C10.5521 14.0714 11.0313 13.1904 11.8722 12.1168C13.1153 10.5297 15.4275 8.19558 19.3835 6.08847C19.46 6.04776 19.5489 6.03719 19.6328 6.05886C19.7167 6.08052 19.7894 6.13285 19.8366 6.20551C19.8837 6.27817 19.902 6.36587 19.8876 6.45131C19.8733 6.53674 19.8274 6.61369 19.7591 6.66696C19.744 6.67877 18.2187 7.87992 16.4633 10.08C14.8477 12.1047 12.7001 15.4153 11.6434 19.6893C11.6248 19.7644 11.5816 19.8311 11.5207 19.8787C11.4598 19.9264 11.3847 19.9523 11.3073 19.9523L11.3075 19.9522Z" fill="#3CB371"/>
</svg>
