<svg width="92" height="92" viewBox="0 0 92 92" fill="none" xmlns="http://www.w3.org/2000/svg">
<path d="M45.6754 91.4833L36.9629 82.7366L37.6462 82.019L45.6754 90.0824L53.7388 82.019L54.4221 82.7366L45.6754 91.4833Z" fill="#161921" fill-opacity="0.06"/>
<path d="M19.0037 63.4082L18.3031 64.1089L27.6286 73.4344L28.3292 72.7337L19.0037 63.4082Z" fill="#161921" fill-opacity="0.06"/>
<path d="M8.97984 54.7541L0.233154 46.0416L8.97984 37.2949L9.69731 37.9782L1.634 46.0416L9.69731 54.0708L8.97984 54.7541Z" fill="#161921" fill-opacity="0.06"/>
<path d="M27.6385 18.6747L18.3103 27.9976L19.0107 28.6984L28.3389 19.3755L27.6385 18.6747Z" fill="#161921" fill-opacity="0.06"/>
<path d="M37.6462 10.0296L36.9629 9.31215L45.6754 0.599609L54.4221 9.31215L53.7388 10.0296L45.6754 2.00046L37.6462 10.0296Z" fill="#161921" fill-opacity="0.06"/>
<path d="M63.7441 18.6407L63.0435 19.3413L72.369 28.6668L73.0696 27.9662L63.7441 18.6407Z" fill="#161921" fill-opacity="0.06"/>
<path d="M82.37 54.7541L81.6868 54.0708L89.716 46.0416L81.6868 37.9782L82.37 37.2949L91.1167 46.0416L82.37 54.7541Z" fill="#161921" fill-opacity="0.06"/>
<path d="M72.3358 63.3447L63.0129 72.6729L63.7138 73.3733L73.0367 64.0451L72.3358 63.3447Z" fill="#161921" fill-opacity="0.06"/>
</svg>
