<svg width="440" height="125" viewBox="0 0 440 125" fill="none" xmlns="http://www.w3.org/2000/svg">
<path d="M220.482 125L218.819 123.208C218.657 123.028 201.162 104.834 156.488 104.834C111.293 104.834 51.2367 101.062 46.5257 68.968C-6.02356 66.6364 -12.155 28.9787 -12.155 0.68364C-12.155 -25.7389 -41.5269 -36.2539 -41.8236 -36.3529L-48 -38.4955L-41.8236 -40.6471C-41.5269 -40.7461 -12.155 -51.2611 -12.155 -77.6836C-12.155 -105.979 -6.01456 -143.636 46.5347 -145.968C51.2457 -178.071 111.302 -181.834 156.497 -181.834C201.161 -181.834 218.657 -200.028 218.828 -200.208L220.5 -202L222.154 -200.208C222.325 -200.028 239.82 -181.834 284.485 -181.834C329.68 -181.834 389.727 -178.062 394.447 -145.968C447.006 -143.636 453.137 -105.979 453.137 -77.6836C453.137 -51.1981 482.509 -40.7461 482.806 -40.6471L489 -38.5045L482.806 -36.3529C482.509 -36.2539 453.137 -25.7299 453.137 0.68364C453.137 28.9787 446.997 66.6364 394.447 68.968C389.736 101.062 329.68 104.834 284.485 104.834C239.82 104.834 222.325 123.028 222.154 123.208L220.482 125ZM-35.4673 -38.5045C-26.333 -33.9582 -7.62386 -21.8768 -7.62386 0.68364C-7.62386 29.6899 -1.23164 63.1524 48.6294 64.4938L50.6882 64.5478L50.8321 66.6004C52.9988 96.795 112.174 100.288 156.488 100.288C196.001 100.288 215.043 113.828 220.482 118.545C225.921 113.819 244.963 100.288 284.476 100.288C328.799 100.288 387.974 96.795 390.132 66.6004L390.276 64.5478L392.335 64.4938C442.196 63.1524 448.588 29.6899 448.588 0.68364C448.588 -21.8768 467.306 -33.9582 476.431 -38.5045C467.306 -43.0508 448.588 -55.1322 448.588 -77.6926C448.588 -106.699 442.196 -140.161 392.335 -141.503L390.276 -141.557L390.132 -143.609C387.974 -173.804 328.799 -177.297 284.476 -177.297C244.963 -177.297 225.921 -190.837 220.482 -195.554C215.043 -190.828 196.001 -177.297 156.488 -177.297C112.165 -177.297 52.9988 -173.804 50.8321 -143.609L50.6882 -141.557L48.6294 -141.503C-1.23164 -140.161 -7.62386 -106.699 -7.62386 -77.6926C-7.62386 -55.1232 -26.333 -43.0508 -35.4673 -38.5045Z" fill="url(#paint0_linear_1004_10991)"/>
<defs>
<linearGradient id="paint0_linear_1004_10991" x1="353.975" y1="-160.258" x2="48.1245" y2="117.964" gradientUnits="userSpaceOnUse">
<stop stop-color="#D59647"/>
<stop offset="0.0905" stop-color="#68421D"/>
<stop offset="0.2927" stop-color="#D59647"/>
<stop offset="0.4124" stop-color="#A06D32"/>
<stop offset="0.532" stop-color="#6E471F"/>
<stop offset="0.6965" stop-color="#B17A39"/>
<stop offset="0.7959" stop-color="#D59647"/>
<stop offset="0.8765" stop-color="#97662F"/>
<stop offset="0.9422" stop-color="#68421D"/>
<stop offset="1" stop-color="#BA813D"/>
</linearGradient>
</defs>
</svg>
