<svg xmlns="http://www.w3.org/2000/svg" width="64" height="64" viewBox="0 0 64 64" fill="none"><rect width="64" height="64" rx="32" fill="white"></rect><g clip-path="url(#clip0_1_559)"><path d="M32 18.8812C36.275 18.8812 36.7813 18.9 38.4625 18.975C40.025 19.0437 40.8688 19.3063 41.4313 19.525C42.175 19.8125 42.7125 20.1625 43.2688 20.7188C43.8313 21.2812 44.175 21.8125 44.4625 22.5563C44.6813 23.1188 44.9438 23.9688 45.0125 25.525C45.0875 27.2125 45.1063 27.7188 45.1063 31.9875C45.1063 36.2625 45.0875 36.7688 45.0125 38.45C44.9438 40.0125 44.6813 40.8563 44.4625 41.4188C44.175 42.1625 43.825 42.7 43.2688 43.2563C42.7063 43.8188 42.175 44.1625 41.4313 44.45C40.8688 44.6688 40.0188 44.9313 38.4625 45C36.775 45.075 36.2688 45.0938 32 45.0938C27.725 45.0938 27.2188 45.075 25.5375 45C23.975 44.9313 23.1313 44.6688 22.5688 44.45C21.825 44.1625 21.2875 43.8125 20.7313 43.2563C20.1688 42.6938 19.825 42.1625 19.5375 41.4188C19.3188 40.8563 19.0563 40.0063 18.9875 38.45C18.9125 36.7625 18.8938 36.2563 18.8938 31.9875C18.8938 27.7125 18.9125 27.2063 18.9875 25.525C19.0563 23.9625 19.3188 23.1188 19.5375 22.5563C19.825 21.8125 20.175 21.275 20.7313 20.7188C21.2938 20.1562 21.825 19.8125 22.5688 19.525C23.1313 19.3063 23.9813 19.0437 25.5375 18.975C27.2188 18.9 27.725 18.8812 32 18.8812ZM32 16C27.6563 16 27.1125 16.0187 25.4063 16.0938C23.7063 16.1688 22.5375 16.4437 21.525 16.8375C20.4688 17.25 19.575 17.7938 18.6875 18.6875C17.7938 19.575 17.25 20.4688 16.8375 21.5188C16.4437 22.5375 16.1688 23.7 16.0938 25.4C16.0188 27.1125 16 27.6562 16 32C16 36.3438 16.0188 36.8875 16.0938 38.5938C16.1688 40.2938 16.4437 41.4625 16.8375 42.475C17.25 43.5313 17.7938 44.425 18.6875 45.3125C19.575 46.2 20.4688 46.75 21.5188 47.1562C22.5375 47.55 23.7 47.825 25.4 47.9C27.1063 47.975 27.65 47.9937 31.9938 47.9937C36.3375 47.9937 36.8813 47.975 38.5875 47.9C40.2875 47.825 41.4563 47.55 42.4688 47.1562C43.5188 46.75 44.4125 46.2 45.3 45.3125C46.1875 44.425 46.7375 43.5313 47.1438 42.4813C47.5375 41.4625 47.8125 40.3 47.8875 38.6C47.9625 36.8938 47.9813 36.35 47.9813 32.0063C47.9813 27.6625 47.9625 27.1188 47.8875 25.4125C47.8125 23.7125 47.5375 22.5438 47.1438 21.5312C46.75 20.4688 46.2063 19.575 45.3125 18.6875C44.425 17.8 43.5313 17.25 42.4813 16.8438C41.4625 16.45 40.3 16.175 38.6 16.1C36.8875 16.0188 36.3438 16 32 16Z" fill="#384C71"></path><path d="M32 23.7812C27.4625 23.7812 23.7812 27.4625 23.7812 32C23.7812 36.5375 27.4625 40.2188 32 40.2188C36.5375 40.2188 40.2188 36.5375 40.2188 32C40.2188 27.4625 36.5375 23.7812 32 23.7812ZM32 37.3312C29.0563 37.3312 26.6687 34.9438 26.6687 32C26.6687 29.0563 29.0563 26.6687 32 26.6687C34.9438 26.6687 37.3312 29.0563 37.3312 32C37.3312 34.9438 34.9438 37.3312 32 37.3312Z" fill="#384C71"></path><path d="M42.4625 23.4561C42.4625 24.5186 41.6 25.3749 40.5438 25.3749C39.4813 25.3749 38.625 24.5124 38.625 23.4561C38.625 22.3936 39.4875 21.5374 40.5438 21.5374C41.6 21.5374 42.4625 22.3999 42.4625 23.4561Z" fill="#384C71"></path></g><defs><clipPath id="clip0_1_559"><rect width="32" height="32" fill="white" transform="translate(16 16)"></rect></clipPath></defs></svg>