<svg xmlns="http://www.w3.org/2000/svg" width="64" height="64" viewBox="0 0 64 64" fill="none"><rect width="64" height="64" rx="32" fill="white"></rect><g clip-path="url(#clip0_1_563)"><path fill-rule="evenodd" clip-rule="evenodd" d="M48 32C48 40.8366 40.8366 48 32 48C23.1634 48 16 40.8366 16 32C16 23.1634 23.1634 16 32 16C40.8366 16 48 23.1634 48 32ZM32.5734 27.8119C31.0171 28.4592 27.9068 29.7989 23.2425 31.8311C22.4851 32.1323 22.0883 32.427 22.0522 32.7151C21.9912 33.202 22.6009 33.3937 23.4313 33.6548C23.5442 33.6903 23.6613 33.7271 23.7812 33.7661C24.5982 34.0317 25.6971 34.3424 26.2684 34.3547C26.7866 34.3659 27.365 34.1523 28.0035 33.7138C32.3615 30.772 34.6112 29.2851 34.7524 29.253C34.8521 29.2304 34.9901 29.202 35.0837 29.2851C35.1772 29.3683 35.168 29.5258 35.1581 29.568C35.0977 29.8255 32.7042 32.0508 31.4655 33.2024C31.0793 33.5614 30.8054 33.816 30.7494 33.8742C30.624 34.0045 30.4962 34.1277 30.3733 34.2461C29.6144 34.9778 29.0452 35.5264 30.4048 36.4224C31.0582 36.8529 31.581 37.209 32.1026 37.5642C32.6722 37.9521 33.2404 38.339 33.9755 38.8209C34.1628 38.9437 34.3416 39.0712 34.5159 39.1954C35.1788 39.668 35.7743 40.0926 36.5101 40.0248C36.9377 39.9855 37.3793 39.5835 37.6036 38.3845C38.1336 35.5509 39.1755 29.4113 39.4163 26.8813C39.4374 26.6596 39.4108 26.376 39.3895 26.2514C39.3682 26.1269 39.3237 25.9495 39.1618 25.8181C38.9701 25.6626 38.6742 25.6298 38.5418 25.6321C37.94 25.6427 37.0167 25.9638 32.5734 27.8119Z" fill="#384C71"></path></g><defs><clipPath id="clip0_1_563"><rect width="32" height="32" fill="white" transform="translate(16 16)"></rect></clipPath></defs></svg>