<svg xmlns="http://www.w3.org/2000/svg" width="64" height="64" viewBox="0 0 64 64" fill="none"><rect width="64" height="64" rx="32" fill="white"></rect><g clip-path="url(#clip0_1_555)"><path d="M32 16C23.1635 16 16 23.1635 16 32C16 39.5034 21.1661 45.7997 28.135 47.529V36.8896H24.8358V32H28.135V29.8931C28.135 24.4474 30.5997 21.9232 35.9462 21.9232C36.96 21.9232 38.7091 22.1222 39.4246 22.3206V26.7526C39.047 26.713 38.391 26.6931 37.5763 26.6931C34.953 26.6931 33.9392 27.687 33.9392 30.2707V32H39.1654L38.2675 36.8896H33.9392V47.8829C41.8618 46.9261 48.0006 40.1805 48.0006 32C48 23.1635 40.8365 16 32 16Z" fill="#384C71"></path></g><defs><clipPath id="clip0_1_555"><rect width="32" height="32" fill="white" transform="translate(16 16)"></rect></clipPath></defs></svg>