<svg width="133" height="66" viewBox="0 0 133 66" fill="none" xmlns="http://www.w3.org/2000/svg">
<path d="M49.0057 20.6392C49.4995 20.5294 50.0537 20.5294 50.4982 20.7982C51.0279 21.1276 51.3249 21.7622 51.2896 22.3769C51.2768 23.1832 50.7406 23.9997 49.9338 24.2052C49.3283 24.3565 48.6029 24.324 48.1283 23.8739C47.4439 23.2355 47.4035 22.0896 47.9519 21.3549C48.203 20.9957 48.5781 20.741 49.0057 20.6392Z" fill="#EA1B66"/>
<path d="M35.9888 22.0208C37.3255 21.4813 38.7673 21.2343 40.2053 21.1909C41.3855 21.1511 42.5649 21.2922 43.7021 21.609C43.5537 22.447 43.4054 23.285 43.257 24.1229C42.1359 23.7776 40.9692 23.5273 39.7897 23.5567C38.5993 23.5778 37.3935 23.7782 36.3108 24.287C35.5135 24.6588 34.8055 25.1965 34.2347 25.8638C33.5788 26.6291 33.0696 27.5079 32.7325 28.4562C32.3028 29.6609 32.1553 30.9542 32.2143 32.2271C32.2667 33.5055 32.603 34.7565 33.1988 35.8901C33.9576 37.2907 35.0864 38.5266 36.5212 39.2569C37.6757 39.8532 38.9719 40.1258 40.2637 40.18C41.803 40.2605 43.3205 39.9081 44.7957 39.5116C44.7225 40.2994 44.6674 41.0891 44.5821 41.8736C43.2348 42.2564 41.8404 42.4498 40.4394 42.4482C38.3119 42.4565 36.121 42.1405 34.2353 41.1076C32.6562 40.2579 31.428 38.8618 30.5891 37.299C29.4686 35.1962 29.1883 32.7225 29.5231 30.3861C29.8241 28.3641 30.6932 26.468 32.0302 24.9165C33.0872 23.6385 34.4478 22.6432 35.9888 22.0208Z" fill="#EA1B66"/>
<path d="M56.3865 22.8425L58.8796 22.5872C58.7577 24.1691 58.623 25.7516 58.6096 27.3386C60.1335 27.3348 61.6561 27.2575 63.1781 27.1816C63.1418 27.9663 63.1046 28.7513 63.0665 29.5365C61.5394 29.488 60.0123 29.4446 58.4838 29.442C58.4608 31.0003 58.4543 32.5586 58.4518 34.1169C58.4454 35.2991 58.4479 36.4891 58.6487 37.6573C58.7693 38.2906 58.9309 38.9698 59.4106 39.4365C59.9135 39.9261 60.635 40.1042 61.3181 40.1463C62.0672 40.2102 62.8055 40.0187 63.5277 39.8431C63.4635 40.5279 63.3994 41.2131 63.3353 41.8987C62.4822 42.2102 61.574 42.3953 60.6626 42.3513C59.6088 42.3168 58.4941 42.1406 57.6327 41.4908C56.965 40.9928 56.6136 40.1974 56.4038 39.416C56.062 38.1106 56.0152 36.7508 56.019 35.4089C56.019 33.4198 56.0357 31.4312 56.0492 29.442C55.1762 29.4459 54.3046 29.4912 53.4336 29.5372C53.4637 28.7711 53.4977 28.0089 53.5279 27.2454C54.4258 27.3003 55.3237 27.3405 56.2217 27.3386C56.2493 25.8403 56.3224 24.3421 56.3865 22.8425Z" fill="#EA1B66"/>
<path d="M47.418 27.151C48.4762 27.0085 49.5345 26.8663 50.5928 26.7246C50.4331 29.5782 50.4004 32.4381 50.4004 35.2961C50.4094 37.54 50.4767 39.7845 50.621 42.0233H47.7515C47.9439 39.233 47.9939 36.435 47.9638 33.6382C47.924 31.469 47.7951 29.2934 47.418 27.151Z" fill="#EA1B66"/>
<path d="M65.0879 27.0231C66.1829 27.0231 67.2778 27.0231 68.3724 27.0231C68.4667 27.4885 68.629 27.9353 68.7803 28.386C69.8463 31.5275 71.1708 34.5828 72.0834 37.7753C72.2188 38.286 72.3535 38.7967 72.3817 39.3246L72.5273 39.3214C72.5613 38.8139 72.6896 38.3192 72.8159 37.8283C73.4785 35.3462 74.4194 32.9498 75.1563 30.4908C75.477 29.3532 75.8471 28.2098 75.9144 27.0225C76.8786 27.0225 77.8428 27.0225 78.8071 27.0225C78.7519 27.6072 78.5441 28.1626 78.3581 28.7161C77.6166 30.7742 76.7078 32.7678 75.8349 34.773C74.9857 36.7443 74.1487 38.7233 73.4464 40.7527C73.084 41.7677 72.8544 42.8223 72.5331 43.8501C72.2258 44.8383 71.8987 45.829 71.4215 46.7502C71.1746 47.2535 70.8105 47.6908 70.3594 48.0257C69.2331 48.8313 67.7939 48.9909 66.4431 49.0024C66.4004 48.2653 66.3576 47.5282 66.3149 46.7911C67.2705 46.7911 68.239 46.5319 69.0144 45.9612C69.8555 45.3574 70.466 44.4876 70.7462 43.4938C70.9347 42.7821 70.9957 42.0256 70.8347 41.301C70.6493 40.4124 70.353 39.5512 70.0464 38.6977C69.2447 36.5055 68.2871 34.3753 67.3423 32.2425C66.5874 30.508 65.7953 28.7844 65.0879 27.0231Z" fill="#EA1B66"/>
<path d="M15.93 21.1667L16.0237 21.2536C15.8954 21.4323 15.7671 21.6098 15.6388 21.7885C16.0384 21.7834 16.4393 21.7885 16.8382 21.8102C17.9927 21.8702 19.1177 22.1613 20.2221 22.4805C20.5826 22.0528 20.9396 21.6217 21.2932 21.1872L21.5075 21.1968C21.2381 21.6896 20.8892 22.1313 20.5608 22.5859C22.0146 23.032 23.3878 23.7054 24.6291 24.5808C25.0716 23.9488 25.4934 23.3032 25.8945 22.644C25.9394 22.5163 26.0825 22.5642 26.1851 22.5533C25.7521 23.2881 25.3218 24.0216 24.8792 24.7538C25.9555 25.5083 26.9836 26.3287 27.988 27.1745L27.8501 27.3073C27.3447 26.8783 26.8438 26.4442 26.3371 26.0171C25.8477 25.6118 25.3051 25.2773 24.7561 24.9593C24.042 26.1093 23.2529 27.2113 22.3939 28.2585C22.6857 28.4889 22.9711 28.7245 23.252 28.9703C24.1564 29.7516 24.9241 30.6741 25.6431 31.6227C26.9837 29.8333 28.1921 27.9494 29.2586 25.9859L29.4734 26.0497C28.8904 27.2403 28.3087 28.4327 27.6314 29.5735C27.1183 30.4302 26.5641 31.2588 25.9773 32.0632C26.2903 32.4888 26.5928 32.9233 26.8848 33.3668C26.8444 33.4019 26.8046 33.437 26.7655 33.4734C26.4724 33.0533 26.1613 32.6435 25.8458 32.2426C24.7376 33.7217 23.5441 35.1355 22.2714 36.4769C22.7614 37.0425 23.2533 37.6062 23.742 38.1744C23.7145 38.1986 23.658 38.2471 23.6304 38.272C23.1319 37.7222 22.6265 37.1794 22.1142 36.6435C21.0925 37.7154 20.056 38.7783 18.9208 39.7326C17.8214 40.8058 16.5932 41.734 15.3816 42.6756C15.8678 43.2369 16.3595 43.7929 16.8568 44.3436C16.8183 44.3749 16.7805 44.4075 16.742 44.4394C16.2289 43.8968 15.7137 43.355 15.1963 42.8141C13.728 43.9403 12.195 44.9805 10.6053 45.9294C10.9768 46.2843 11.3567 46.6301 11.745 46.9667L11.6295 47.0682C11.2169 46.7363 10.8135 46.3935 10.4193 46.0398C9.25781 46.721 8.05188 47.3241 6.80956 47.8451C5.90456 48.2237 4.97969 48.555 4.06187 48.901C4.0452 48.827 4.02852 48.7548 4.01249 48.682C6.08608 47.8343 8.08142 46.8027 10.012 45.6708C9.72079 45.3982 9.43473 45.1225 9.15124 44.8409C8.31744 44.0257 7.60102 43.0943 6.97054 42.1119C5.83401 42.8466 4.66862 43.5418 3.44294 44.1151C3.71072 44.7537 4.04341 45.3633 4.4358 45.9345C4.78279 46.4299 5.13106 46.922 5.47612 47.4155L5.33181 47.5432C4.58524 46.4643 3.86946 45.3625 3.22295 44.2236C2.45329 44.5875 1.67465 44.938 0.899859 45.2948C0.904349 45.2176 0.907556 45.1416 0.912046 45.0656C1.63937 44.7196 2.36414 44.3634 3.06132 43.9587C2.99269 43.7761 2.88109 43.6133 2.79386 43.4391C2.17172 42.2772 1.76765 41.0132 1.48801 39.7282C1.00056 40.0116 0.518237 40.3072 0 40.5325V40.4687C0.00384829 40.4304 0.0121863 40.3531 0.0173173 40.3136C0.487451 40.0097 0.952453 39.6975 1.41681 39.3841C1.27411 38.6574 1.16964 37.9237 1.10382 37.1862C1.03968 36.3818 1.08971 35.5743 1.18335 34.7744C1.01595 34.8695 0.852397 34.9716 0.681789 35.061C0.634968 35.1357 0.522727 35.0578 0.558003 34.9908C0.750417 34.8146 0.977467 34.6844 1.16988 34.5107C1.23979 34.4641 1.23402 34.3754 1.2507 34.3039C1.36807 33.5161 1.50725 32.7297 1.69966 31.9559C2.06782 30.5298 2.75217 29.2065 3.543 27.9699C3.83226 27.5186 4.18438 27.1132 4.5365 26.7104C4.75008 26.3319 4.84179 25.8984 4.96302 25.4847C5.02559 25.4615 5.08993 25.4434 5.15543 25.4305C5.10733 25.7056 5.03742 25.9756 4.97777 26.2482C5.26896 25.9546 5.55501 25.6526 5.84492 25.3615C6.12712 25.1279 6.43755 24.9293 6.71912 24.6944C6.45359 24.7246 6.18848 24.7574 5.92381 24.7927C5.93792 24.7289 5.95203 24.6612 5.96614 24.5961C6.32659 24.5016 6.69282 24.4333 7.05649 24.3663C7.22966 24.3382 7.3573 24.2086 7.4984 24.1154C8.20777 23.6009 9.00501 23.2261 9.80738 22.8846C10.8592 22.4429 11.9624 22.1052 13.0989 21.973C13.8385 21.8862 14.5818 21.8326 15.3252 21.8026C15.5324 21.5906 15.7312 21.3793 15.93 21.1667ZM15.2008 22.3899C14.7165 23.0455 14.1643 23.6475 13.6095 24.2444C14.9834 24.5173 16.3342 24.8946 17.6502 25.373C18.4122 24.5616 19.1613 23.7381 19.8726 22.8833C18.356 22.4498 16.775 22.2828 15.2008 22.3899ZM12.0849 22.7544C10.9234 22.9561 9.83496 23.447 8.81388 24.0184C9.41293 24.0094 10.012 24.0184 10.6097 24.0184C11.4256 24.0184 12.2453 24.0235 13.0534 24.1499C13.6236 23.583 14.1778 23.0008 14.7351 22.4224C13.8494 22.4965 12.9668 22.6184 12.0875 22.7544H12.0849ZM18.1428 25.5671C18.5362 25.7298 18.9179 25.9195 19.2851 26.1346C20.2271 26.6915 21.136 27.3022 22.0071 27.9635C22.8691 26.9421 23.6905 25.8907 24.4713 24.8093C23.1339 24.0578 21.7203 23.4492 20.2542 22.9938C19.5929 23.883 18.8836 24.7378 18.1453 25.5671H18.1428ZM8.00445 24.5712C7.93632 24.5891 7.87274 24.6211 7.81781 24.6651C7.38295 24.9613 6.93976 25.2453 6.51516 25.5556C7.74148 25.9839 8.96011 26.4397 10.1447 26.9734C10.9587 26.2074 11.7706 25.4413 12.5595 24.6523C11.0523 24.4295 9.52004 24.441 8.00445 24.5712ZM13.1355 24.7461C12.3582 25.6022 11.5487 26.4289 10.7201 27.2358C11.8598 27.758 12.9123 28.4417 13.9732 29.1024C15.0911 28.0344 16.1628 26.9223 17.2365 25.8103C15.9031 25.3391 14.5315 24.9831 13.1368 24.7461H13.1355ZM14.4824 29.4363C15.7402 30.2777 16.9838 31.1599 18.0556 32.2336C19.3896 30.969 20.6083 29.5908 21.8057 28.1991C20.5489 27.3009 19.1841 26.5628 17.7432 26.0018C16.6759 27.1611 15.6177 28.3351 14.4863 29.4363H14.4824ZM5.86031 26.1071C5.48703 26.554 5.09578 26.99 4.74238 27.4528C4.44799 28.9511 4.28508 30.4813 4.35755 32.0089C5.22534 31.3067 6.06748 30.5777 6.91731 29.8557C6.50554 28.6236 6.17074 27.3673 5.86031 26.1071ZM6.41575 26.0918C6.70244 27.2371 6.89807 28.4091 7.30214 29.5225C8.14235 28.8049 8.99154 28.0963 9.7798 27.3213C8.70035 26.8068 7.53945 26.4934 6.41382 26.0918H6.41575ZM7.52021 30.1066C7.97623 31.2678 8.50922 32.3958 9.07364 33.5078C9.90743 32.8133 10.713 32.0804 11.5436 31.3801C12.2376 30.759 12.9142 30.1193 13.5858 29.4746C12.5262 28.8056 11.4519 28.1557 10.3307 27.5933C9.42832 28.4685 8.47523 29.2901 7.52021 30.1066ZM2.43084 31.6387C2.23842 32.4047 2.05242 33.1708 1.90747 33.9445C2.54244 33.4538 3.17335 32.9586 3.80019 32.459C3.76171 31.6546 3.83098 30.8503 3.91371 30.051C3.97785 29.449 4.02532 28.8464 4.09587 28.2457C3.36213 29.2729 2.72459 30.3989 2.43084 31.6361V31.6387ZM22.2066 28.4915C21.0328 29.9317 19.7745 31.3003 18.4654 32.6186C19.6263 33.7396 20.7808 34.8657 21.8827 36.0435C23.1855 34.7171 24.3964 33.3043 25.5071 31.8149C24.9857 31.1765 24.4437 30.5496 23.8755 29.9508C23.3675 29.4127 22.7928 28.9422 22.2066 28.4915ZM9.35713 34.0581C9.58289 34.4833 9.80609 34.9123 10.0485 35.3278C10.5944 36.2094 11.1318 37.0955 11.6828 37.9733C12.4216 37.3662 13.158 36.7565 13.8846 36.1322C14.2374 35.8309 14.5728 35.5104 14.9352 35.2212C15.9217 34.3524 16.8504 33.4236 17.7894 32.5056C16.9665 31.8723 16.1346 31.2512 15.3079 30.6224C14.9166 30.3377 14.5087 30.0766 14.1053 29.8078C12.5711 31.2799 10.9817 32.6894 9.35713 34.0588V34.0581ZM4.3877 32.5962C4.48957 33.9984 4.70926 35.3896 5.04447 36.7553C6.2631 35.8047 7.48172 34.8542 8.66251 33.8551C8.10771 32.738 7.53175 31.6253 7.12319 30.4455C6.2368 31.1976 5.31578 31.9023 4.3877 32.5969V32.5962ZM18.1774 32.9084C17.1666 33.9062 16.125 34.8772 15.0872 35.8449C14.07 36.7221 13.0438 37.5896 11.999 38.4342C12.9251 39.7563 13.9578 40.9998 15.0039 42.2287C15.7851 41.6027 16.5524 40.9588 17.3058 40.297C18.7912 38.9564 20.31 37.649 21.7127 36.219C20.632 35.098 19.5262 33.9968 18.3525 32.9716C18.2986 32.9448 18.2313 32.8286 18.1748 32.909L18.1774 32.9084ZM1.8273 34.4022C1.56426 35.9518 1.57338 37.535 1.85424 39.0815C2.77483 38.4512 3.67876 37.7986 4.566 37.1236C4.21951 35.7728 3.97743 34.3975 3.84188 33.0099C3.18959 33.5002 2.53089 33.9853 1.8273 34.4022ZM5.18237 37.2806C5.60066 38.7635 6.20262 40.1889 6.97439 41.5239C8.48677 40.4821 9.9767 39.4045 11.3826 38.2229C10.4302 37.0457 9.65922 35.7332 8.94921 34.4022C7.72609 35.4032 6.44974 36.3365 5.18237 37.2806ZM1.92415 39.4652C2.22367 40.9628 2.71112 42.4189 3.31146 43.8221C4.47877 43.1677 5.60632 42.4483 6.71527 41.7059C5.95395 40.3966 5.16505 39.0783 4.7071 37.6266C3.8143 38.2874 2.87916 38.8919 1.92415 39.4652ZM7.22966 41.9408C8.01215 43.3031 9.10955 44.4451 10.2172 45.5483C11.8171 44.5974 13.3505 43.54 14.807 42.3832C13.7397 41.1741 12.7295 39.9171 11.7283 38.6551C10.2861 39.8255 8.78506 40.9221 7.23094 41.9408H7.22966Z" fill="#23C1E5"/>
<path d="M117.396 22.8397C118.23 22.76 119.057 22.6725 119.887 22.5889C119.765 24.1708 119.63 25.7533 119.617 27.3403C121.141 27.3365 122.663 27.2592 124.185 27.1839C124.149 27.9683 124.112 28.7532 124.074 29.5389C122.547 29.4897 121.019 29.4457 119.491 29.4444C119.466 31.1591 119.462 32.8744 119.458 34.5897C119.458 35.6749 119.482 36.7685 119.69 37.8371C119.809 38.3995 119.973 38.9907 120.39 39.4107C120.851 39.8793 121.515 40.0746 122.154 40.1346C122.96 40.233 123.758 40.0414 124.535 39.8442C124.472 40.5294 124.407 41.2148 124.343 41.9004C123.637 42.1557 122.902 42.3313 122.152 42.3549C121.578 42.3696 121.005 42.3269 120.44 42.2272C119.533 42.0664 118.61 41.6687 118.067 40.8981C117.523 40.1276 117.317 39.1694 117.182 38.2457C116.97 36.741 117.042 35.2172 117.035 33.7024C117.04 32.2835 117.049 30.8639 117.061 29.4438C116.188 29.4476 115.316 29.4929 114.445 29.5389C114.476 28.7728 114.508 28.0087 114.54 27.2465C115.438 27.302 116.336 27.3422 117.234 27.3403C117.258 25.8395 117.327 24.3418 117.396 22.8397Z" fill="#23C1E5"/>
<path d="M102.165 27.3809C103.145 26.7278 104.317 26.3952 105.489 26.3416C106.686 26.2899 107.922 26.4297 109.012 26.9519C109.744 27.3034 110.379 27.8268 110.863 28.477C111.524 29.3388 111.923 30.3825 112.082 31.4511C112.241 32.4898 112.156 33.5431 112.113 34.5869C108.48 34.6577 104.848 34.7145 101.216 34.7784C101.272 35.8191 101.611 36.8251 102.196 37.6894C102.849 38.6412 103.788 39.4072 104.884 39.796C106.005 40.2122 107.221 40.2339 108.401 40.1637C109.57 40.1026 110.729 39.9166 111.857 39.609L111.587 41.8401C110.591 42.2199 109.521 42.3508 108.462 42.4146C107.179 42.4842 105.876 42.4785 104.614 42.2135C103.459 41.9748 102.339 41.5113 101.418 40.767C99.9175 39.5441 98.9472 37.7933 98.7083 35.8776C98.4697 33.7991 98.8366 31.6184 99.9269 29.8131C100.496 28.8625 101.231 27.9918 102.165 27.3809ZM102.678 29.603C101.844 30.5261 101.487 31.7614 101.304 32.9609C104.041 32.9043 106.778 32.8469 109.518 32.7885C109.523 32.2468 109.471 31.7059 109.364 31.1747C109.192 30.3385 108.795 29.506 108.086 28.996C107.278 28.408 106.226 28.2937 105.257 28.3793C104.288 28.4648 103.329 28.8689 102.68 29.603H102.678Z" fill="#23C1E5"/>
<path d="M87.1309 26.9429C88.0712 26.5878 89.0785 26.4433 90.0813 26.5196C91.3191 26.5834 92.6051 26.8765 93.5877 27.6687C94.3137 28.2502 94.6967 29.1472 94.8705 30.0371C95.1495 31.4019 94.968 32.798 94.9628 34.1769C94.9673 36.7943 94.9955 39.4116 95.027 42.0245H92.1407C92.3934 39.0005 92.489 35.9657 92.4897 32.9321C92.4762 31.9745 92.3966 30.9685 91.8983 30.1271C91.3852 29.2972 90.3898 28.9039 89.4521 28.7948C88.0827 28.621 86.6948 28.9195 85.5197 29.6406C85.1676 29.8653 84.802 30.0932 84.5128 30.392C84.5012 34.2689 84.5365 38.147 84.5705 42.0239H81.6843C81.7689 40.3124 81.8485 38.6009 81.903 36.8881C81.9415 35.6114 81.9767 34.3346 81.9351 33.054C81.8742 31.0497 81.6464 29.0539 81.2539 27.0871C82.1848 26.956 83.1161 26.8243 84.0478 26.692C84.1472 27.3348 84.2498 27.9764 84.3486 28.6192L84.4769 28.616C85.2549 27.9132 86.1451 27.3182 87.1309 26.9429Z" fill="#23C1E5"/>
<path d="M123.354 44.1024C123.538 44.0328 123.855 44.0385 123.915 44.2709C123.991 44.5339 123.7 44.7669 123.452 44.6827C123.182 44.6508 123.115 44.2179 123.354 44.1024Z" fill="#EA1B66"/>
<path d="M102.658 44.2083H103.144C103.144 44.9698 103.141 45.7308 103.144 46.4924C103.155 46.62 103.161 46.816 103.325 46.832C103.61 46.8629 103.898 46.8629 104.183 46.832C104.364 46.7988 104.367 46.59 104.368 46.449C104.368 45.7021 104.368 44.9564 104.368 44.2095H104.867C104.867 44.9394 104.867 45.6686 104.867 46.3972C104.862 46.5288 104.892 46.6775 105.009 46.7567C105.193 46.8888 105.433 46.8473 105.65 46.8537C105.65 45.9727 105.65 45.0913 105.65 44.2095H106.145C106.145 44.79 106.145 45.3703 106.145 45.9504C106.371 45.7104 106.621 45.4237 106.975 45.4014C107.36 45.3797 107.663 45.6944 107.778 46.0327C107.889 46.3832 107.873 46.8109 107.63 47.1052C107.557 47.1883 107.465 47.2536 107.362 47.2962C107.26 47.3388 107.149 47.3575 107.038 47.351C106.485 47.351 105.932 47.351 105.379 47.351C105.128 47.358 104.902 47.2233 104.738 47.042C104.657 47.14 104.556 47.2185 104.441 47.2715C104.325 47.3245 104.199 47.3506 104.072 47.3478C103.703 47.3382 103.303 47.3995 102.966 47.2061C102.761 47.0912 102.662 46.8556 102.663 46.6315C102.655 45.8233 102.66 45.0158 102.658 44.2083ZM106.763 45.9919C106.464 46.2096 106.25 46.523 106.088 46.8505C106.421 46.8505 106.756 46.862 107.09 46.846C107.25 46.8345 107.318 46.6545 107.325 46.5192C107.333 46.3347 107.337 46.1247 107.214 45.974C107.091 45.8444 106.889 45.9 106.763 45.9919Z" fill="#EA1B66"/>
<path d="M108.559 44.2083H109.039V47.3484H108.559V44.2083Z" fill="#EA1B66"/>
<path d="M99.0287 44.2793C99.1916 44.2793 99.3558 44.2793 99.5206 44.2793C99.527 45.0039 99.5206 45.7284 99.5245 46.4498C99.5328 46.5857 99.5379 46.7958 99.7105 46.8239C99.9869 46.8724 100.27 46.8443 100.55 46.8526C100.422 46.5366 100.32 46.16 100.493 45.8401C100.7 45.4226 101.246 45.3173 101.664 45.4265C101.857 45.4852 102.016 45.618 102.166 45.7456C102.085 45.8763 102.001 46.0055 101.915 46.1331C101.669 45.9531 101.328 45.7246 101.023 45.9033C100.721 46.1734 100.868 46.8896 101.338 46.8513C101.642 46.8513 101.946 46.8513 102.252 46.8513C102.279 47.0177 102.307 47.1843 102.333 47.3512C101.547 47.3512 100.76 47.3512 99.9747 47.3512C99.7041 47.3371 99.4071 47.2988 99.1974 47.1118C99.0473 46.9739 99.0261 46.7575 99.0274 46.5672C99.0287 45.8037 99.0287 45.0415 99.0287 44.2793Z" fill="#EA1B66"/>
<path d="M119.497 44.2793H119.992C119.992 45.0026 119.992 45.7259 119.992 46.4498C119.996 46.5928 120.013 46.8156 120.2 46.8296C120.505 46.8605 120.813 46.8594 121.118 46.8264C121.25 46.8264 121.31 46.6815 121.323 46.5711C121.351 46.3202 121.331 46.0674 121.337 45.8159H121.832C121.838 46.0674 121.817 46.3189 121.843 46.5698C121.899 46.7824 122.15 46.8328 122.341 46.8481C122.751 46.8634 123.163 46.8481 123.575 46.8558C123.686 46.8475 123.815 46.8743 123.914 46.8047C124.013 46.7351 124.002 46.6062 124.032 46.504C123.725 46.4868 123.414 46.5008 123.113 46.4402C122.686 46.2583 122.65 45.648 122.89 45.3026C123.254 44.8015 124.126 44.9317 124.391 45.4686C124.562 45.8108 124.51 46.2059 124.543 46.5749C124.578 47.0026 124.163 47.3633 123.749 47.3531C123.236 47.3531 122.723 47.3575 122.21 47.3531C121.991 47.3541 121.776 47.293 121.591 47.1769C121.278 47.4322 120.86 47.3416 120.489 47.3563C120.178 47.3454 119.812 47.3071 119.603 47.0479C119.452 46.8207 119.502 46.5372 119.494 46.2819L119.497 44.2793ZM123.309 46.0029C123.531 46.0667 123.77 46.031 124 46.038C123.973 45.8963 123.965 45.7399 123.868 45.625C123.758 45.489 123.561 45.4648 123.4 45.4973C123.17 45.5363 123.145 45.8791 123.309 46.0016V46.0029Z" fill="#EA1B66"/>
<path d="M75.4499 44.7662C75.6378 44.6807 75.9886 44.71 75.9944 44.9769C76.0168 45.2111 75.7443 45.3382 75.5454 45.2705C75.3075 45.2443 75.2491 44.8773 75.4499 44.7662Z" fill="#EA1B66"/>
<path d="M76.3991 44.7656C76.5883 44.6813 76.9404 44.7094 76.9436 44.9781C76.9699 45.305 76.4664 45.3918 76.3099 45.1473C76.2503 45.0254 76.2605 44.8339 76.3991 44.7656Z" fill="#EA1B66"/>
<path d="M78.9562 44.7823C79.1486 44.7184 79.4693 44.7236 79.5161 44.97C79.5803 45.2336 79.2891 45.4532 79.0434 45.3658C78.7696 45.3326 78.7003 44.8863 78.9562 44.7823Z" fill="#EA1B66"/>
<path d="M85.5184 44.7524C85.7038 44.6847 86.0225 44.7249 86.0315 44.9745C86.0707 45.2937 85.6069 45.4035 85.426 45.1871C85.3324 45.0537 85.3484 44.8149 85.5184 44.7524Z" fill="#EA1B66"/>
<path d="M86.4656 44.7508C86.6517 44.687 86.9672 44.7253 86.9704 44.9762C87.0019 45.2175 86.7228 45.3547 86.5214 45.28C86.27 45.2424 86.2335 44.8338 86.4656 44.7508Z" fill="#EA1B66"/>
<path d="M95.7279 44.7644C95.9132 44.6814 96.2577 44.7127 96.2647 44.9738C96.2897 45.203 96.0332 45.3511 95.8305 45.2847C95.5842 45.2611 95.5207 44.8787 95.7279 44.7644Z" fill="#EA1B66"/>
<path d="M96.6776 44.7604C96.8635 44.6825 97.2009 44.7145 97.2073 44.9737C97.2394 45.2839 96.7943 45.402 96.6089 45.1939C96.5146 45.0662 96.5204 44.837 96.6776 44.7604Z" fill="#EA1B66"/>
<path d="M120.821 44.7772C121.008 44.7197 121.324 44.7287 121.37 44.9687C121.434 45.224 121.155 45.4462 120.913 45.3683C120.623 45.3498 120.546 44.8749 120.821 44.7772Z" fill="#EA1B66"/>
<path d="M112.544 46.1573C112.556 45.9697 112.633 45.7922 112.762 45.6543C112.89 45.5165 113.062 45.4268 113.249 45.4001C113.5 45.3752 113.752 45.3931 114.005 45.3906C114.01 45.5429 114.016 45.6959 114.023 45.8496C113.771 45.8598 113.51 45.8202 113.267 45.8789C112.971 46.0066 113.03 46.3788 113.004 46.638C113.311 46.6597 113.656 46.6105 113.928 46.788C114.204 46.9916 114.178 47.3823 114.12 47.6817C114.024 48.1924 113.535 48.5716 113.022 48.585C112.707 48.585 112.391 48.592 112.078 48.585C111.518 48.5518 111.081 48.036 111.03 47.4998C111.006 47.104 111.024 46.7075 111.02 46.3111H111.48C111.494 46.6941 111.471 47.0772 111.492 47.4646C111.518 47.8368 111.889 48.1062 112.249 48.103C112.51 48.1069 112.772 48.1158 113.033 48.0954C113.372 48.0532 113.719 47.7583 113.68 47.3931C113.653 47.2272 113.476 47.1493 113.328 47.1231C113.066 47.088 112.802 47.1135 112.54 47.1065C112.542 46.788 112.528 46.4726 112.544 46.1573Z" fill="#EA1B66"/>
<path d="M117.575 45.4377C117.831 45.3623 118.103 45.3679 118.355 45.4537C118.606 45.5526 118.75 45.8099 118.793 46.0653C118.873 46.5223 118.845 46.989 118.848 47.4512C118.844 48.05 118.293 48.5556 117.707 48.5843C117.462 48.5939 117.218 48.5843 116.974 48.5888C116.951 48.4228 116.929 48.2568 116.91 48.0921C117.295 48.0685 117.733 48.1757 118.065 47.9274C118.257 47.7997 118.335 47.5706 118.362 47.3529C118.016 47.3337 117.628 47.3395 117.348 47.1058C117.067 46.8562 117.061 46.4419 117.108 46.0985C117.144 45.8233 117.285 45.5175 117.575 45.4377ZM117.625 46.1208C117.588 46.3238 117.551 46.583 117.721 46.7388C117.899 46.8766 118.141 46.8428 118.353 46.8588C118.346 46.6143 118.38 46.364 118.322 46.1246C118.245 45.8093 117.695 45.7952 117.625 46.1208Z" fill="#EA1B66"/>
<path d="M77.6308 45.8137H78.1318C78.1433 46.0831 78.1042 46.3576 78.1555 46.6238C78.2902 46.9155 78.6686 46.8421 78.9296 46.8485C79.1086 46.823 79.3934 46.9066 79.4678 46.6806C79.5434 46.3965 79.4921 46.0984 79.4979 45.8086C79.6664 45.8086 79.8357 45.8086 80.0059 45.8086C80.0014 46.0805 80.0129 46.3525 80.002 46.6244C79.9866 46.9966 79.6724 47.3675 79.2792 47.3503C78.8135 47.3337 78.3011 47.4307 77.8835 47.1747C77.7334 47.2692 77.5693 47.3598 77.3852 47.349H74.8363C74.5111 47.3688 74.2392 47.1064 74.1532 46.8108C74.0808 46.4846 74.1321 46.1457 74.1173 45.8143H74.6125C74.6227 46.0965 74.5874 46.3819 74.6343 46.6615C74.6708 46.8287 74.8658 46.853 75.0095 46.853C75.7631 46.853 76.5167 46.853 77.2697 46.853C77.4128 46.86 77.5968 46.807 77.6141 46.6398C77.6488 46.3659 77.6231 46.0882 77.6308 45.8137Z" fill="#EA1B66"/>
<path d="M86.1536 45.8081H86.65C86.6628 46.0979 86.6199 46.3941 86.6795 46.6808C86.7238 46.8384 86.9111 46.8442 87.0458 46.8493C87.3421 46.8493 87.639 46.864 87.9347 46.841C87.993 46.837 88.0479 46.8126 88.0897 46.772C88.1316 46.7314 88.1575 46.6774 88.163 46.6195C88.1887 46.3514 88.1675 46.082 88.1752 45.8132C88.3394 45.8132 88.5049 45.8132 88.671 45.8132C88.6813 46.1005 88.6383 46.3941 88.6992 46.6769C88.7813 46.8927 89.0578 46.834 89.2406 46.8512C89.4368 46.8423 89.728 46.901 89.8178 46.6705C89.8819 46.3897 89.8319 46.096 89.8473 45.8113H90.3341C90.3392 46.0813 90.3181 46.3526 90.345 46.6227C90.397 46.947 90.9569 47.0695 91.0826 46.7408C91.1179 46.4324 91.089 46.1203 91.098 45.8107H91.579C91.5842 46.082 91.563 46.3546 91.5899 46.6252C91.6457 46.9502 92.2044 47.0644 92.3301 46.7382C92.3615 46.4299 92.3346 46.119 92.3436 45.81H92.8297C92.8188 46.1394 92.8528 46.4707 92.8086 46.7976C92.7688 47.1021 92.5264 47.3894 92.2044 47.4009C91.9138 47.4398 91.6541 47.2732 91.4546 47.0817C91.2936 47.2502 91.0897 47.4143 90.8421 47.4009C90.5721 47.3964 90.3617 47.2042 90.1872 47.021C90.0019 47.2125 89.7562 47.3657 89.4779 47.3434C89.1296 47.3179 88.7082 47.4353 88.4337 47.1615C88.122 47.4168 87.707 47.3313 87.3369 47.3434C87.0162 47.3338 86.6532 47.404 86.4018 47.1615C86.1998 47.3281 85.9368 47.3619 85.6835 47.3415C85.3262 47.3415 84.969 47.3415 84.613 47.3415C84.629 47.5253 84.6496 47.7175 84.5835 47.8962C84.436 48.3188 83.9864 48.5984 83.5432 48.5812C83.1898 48.5691 82.8319 48.6112 82.4836 48.548C82.0006 48.444 81.6748 47.9843 81.6043 47.517C81.5472 47.111 81.5863 46.6993 81.5748 46.2907H82.0699C82.0699 46.6571 82.0648 47.0242 82.0699 47.3906C82.07 47.5099 82.1025 47.6269 82.1639 47.7293C82.2253 47.8316 82.3134 47.9156 82.4188 47.9722C82.6702 48.1152 82.9698 48.0794 83.2481 48.0858C83.4662 48.0794 83.7067 48.112 83.9011 47.9888C83.9822 47.9403 84.0483 47.8703 84.092 47.7867C84.1357 47.7031 84.1553 47.6091 84.1486 47.5151C84.1134 47.4296 84.0139 47.406 83.9351 47.3836C83.6695 47.3268 83.3969 47.346 83.1275 47.3428C83.1128 47.1793 83.0974 47.0165 83.0839 46.8531H85.7521C85.8951 46.8531 86.0946 46.8372 86.1369 46.6674C86.1786 46.3833 86.142 46.0935 86.1536 45.8081Z" fill="#EA1B66"/>
<path d="M94.4937 45.8094C94.6579 45.8094 94.824 45.8094 94.9902 45.8094C94.9972 46.0845 94.9716 46.3629 95.0049 46.6393C95.0216 46.8046 95.2031 46.8608 95.3474 46.8531C96.0811 46.8582 96.8143 46.8531 97.548 46.8531C97.6602 46.848 97.7827 46.8582 97.886 46.8021C97.9893 46.7459 98.0034 46.6195 98.0085 46.5154C98.0162 46.2792 98.0085 46.0437 98.0085 45.8081H98.5094C98.4799 46.1911 98.5877 46.6035 98.4081 46.9572C98.2869 47.187 98.0451 47.3657 97.7744 47.3472C96.906 47.3472 96.0382 47.3472 95.1704 47.3472C94.8099 47.3517 94.5322 47.0165 94.5001 46.6788C94.4828 46.389 94.5001 46.0992 94.4937 45.8094Z" fill="#EA1B66"/>
<path d="M115.919 45.8137H116.432C116.432 46.3193 116.432 46.8255 116.432 47.3324C116.429 47.5686 116.361 47.7995 116.237 48.0008C116.113 48.2021 115.936 48.3664 115.726 48.4764C115.358 48.6545 114.939 48.5658 114.548 48.5881C114.518 48.4228 114.492 48.2568 114.467 48.0914C114.843 48.078 115.257 48.1553 115.596 47.944C115.694 47.8906 115.777 47.8118 115.835 47.7158C115.893 47.6198 115.923 47.5101 115.924 47.3982C115.921 46.8702 115.918 46.3417 115.919 45.8137Z" fill="#EA1B66"/>
<path d="M87.1877 48.0757C87.375 47.9608 87.7598 48.001 87.7534 48.2806C87.7695 48.5417 87.4327 48.6573 87.2365 48.5232C87.1977 48.5019 87.1646 48.4716 87.14 48.4348C87.1155 48.398 87.1001 48.356 87.0954 48.3121C87.0906 48.2682 87.0965 48.2238 87.1126 48.1827C87.1286 48.1415 87.1544 48.1049 87.1877 48.0757Z" fill="#EA1B66"/>
<path d="M88.134 48.0743C88.32 47.9619 88.7036 48.0009 88.6991 48.2798C88.7157 48.5269 88.4008 48.6526 88.2059 48.5352C88.0244 48.4662 87.9769 48.193 88.134 48.0743Z" fill="#EA1B66"/>
<path d="M128.178 20.9682H127.946V22.017C127.955 22.1267 127.922 22.2358 127.853 22.3222C127.823 22.3547 127.786 22.3803 127.744 22.3972C127.703 22.4142 127.659 22.4221 127.614 22.4205C127.568 22.423 127.522 22.4151 127.479 22.3973C127.436 22.3795 127.398 22.3523 127.368 22.3177C127.304 22.2309 127.273 22.1244 127.28 22.017V19.5044C127.28 19.3622 127.312 19.259 127.377 19.1948C127.441 19.1305 127.544 19.0986 127.688 19.099H128.769C128.898 19.0978 129.026 19.1042 129.154 19.1182C129.253 19.1291 129.349 19.1549 129.441 19.1948C129.543 19.2379 129.636 19.3008 129.714 19.3799C129.793 19.4597 129.854 19.5549 129.893 19.6595C129.936 19.7669 129.957 19.8812 129.958 19.9966C129.968 20.2107 129.894 20.4205 129.751 20.5807C129.612 20.7262 129.403 20.8294 129.123 20.8903C129.252 20.961 129.366 21.0544 129.461 21.1661C129.568 21.2873 129.664 21.4173 129.748 21.5549C129.823 21.6739 129.889 21.7983 129.945 21.927C129.981 21.9987 130.005 22.0757 130.016 22.1549C130.015 22.2006 130 22.245 129.974 22.2826C129.946 22.3255 129.907 22.3601 129.861 22.3828C129.81 22.4082 129.753 22.4209 129.696 22.4199C129.629 22.4219 129.564 22.4037 129.508 22.3675C129.457 22.3314 129.414 22.2864 129.38 22.2347C129.343 22.1811 129.294 22.1024 129.231 21.9985L128.965 21.5574C128.891 21.4266 128.805 21.3029 128.708 21.1878C128.646 21.1131 128.568 21.0537 128.479 21.0142C128.383 20.9795 128.28 20.9639 128.178 20.9682ZM128.559 19.5957H127.946V20.4939H128.541C128.676 20.4964 128.811 20.4824 128.944 20.4524C129.039 20.4324 129.126 20.3833 129.193 20.3119C129.254 20.2345 129.285 20.1376 129.279 20.0394C129.281 19.9544 129.256 19.871 129.21 19.8C129.163 19.7301 129.096 19.676 129.017 19.6448C128.94 19.6123 128.786 19.5957 128.559 19.5957Z" fill="#23C1E5"/>
<path d="M128.645 24.5188C127.898 24.5189 127.168 24.2985 126.546 23.8855C125.925 23.4725 125.441 22.8854 125.155 22.1985C124.869 21.5116 124.794 20.7557 124.94 20.0264C125.085 19.2971 125.445 18.6272 125.973 18.1013C126.501 17.5755 127.174 17.2174 127.907 17.0723C128.64 16.9272 129.399 17.0016 130.09 17.2861C130.78 17.5706 131.37 18.0525 131.785 18.6707C132.2 19.289 132.421 20.0158 132.421 20.7594C132.42 21.7558 132.021 22.7108 131.313 23.4154C130.605 24.12 129.646 24.5168 128.645 24.5188ZM128.645 17.4475C127.987 17.4474 127.343 17.6416 126.796 18.0055C126.248 18.3694 125.822 18.8868 125.57 19.4921C125.318 20.0974 125.252 20.7635 125.38 21.4061C125.508 22.0488 125.825 22.639 126.291 23.1024C126.756 23.5657 127.35 23.8812 127.995 24.009C128.641 24.1367 129.31 24.0711 129.918 23.8203C130.526 23.5695 131.046 23.1448 131.412 22.6C131.777 22.0551 131.973 21.4146 131.972 20.7594C131.971 19.8814 131.62 19.0397 130.996 18.4188C130.373 17.798 129.527 17.4487 128.645 17.4475Z" fill="#23C1E5"/>
</svg>
