<svg width="138" height="32" viewBox="0 0 138 32" fill="none" xmlns="http://www.w3.org/2000/svg">
<g clip-path="url(#clip0_42555_117)">
<path d="M127.358 25.6053L127.384 25.6318C129.166 27.5158 132.085 27.5688 133.918 25.738C134.383 25.2869 134.719 24.7562 134.977 24.1459C135.546 22.7396 135.597 20.4046 133.479 20.4046C132.446 20.4046 131.594 21.2803 131.594 22.3416C131.594 23.403 132.446 24.2786 133.479 24.2786C133.867 24.2786 134.228 24.1459 134.564 23.9337C134.047 25.2869 132.859 26.2687 131.465 26.534C129.218 25.393 128.314 22.5804 129.424 20.272C130.406 18.2554 132.627 17.2471 134.719 17.8574C134.564 16.3449 134.487 14.859 134.512 13.3466C134.512 12.7629 134.538 12.1526 134.564 11.5688C134.228 11.7811 133.918 12.0199 133.66 12.3118C133.04 12.9221 132.679 13.7977 132.704 14.6998C132.704 15.6551 133.092 16.5572 133.738 17.194C133.66 17.194 133.583 17.194 133.479 17.194C132.575 17.194 131.671 17.4328 130.896 17.937C130.328 16.9818 130.018 15.8673 130.018 14.7264C129.941 12.9751 130.664 11.2769 131.93 10.136C133.789 8.38474 135.778 7.34992 137.922 5.91708C137.767 6.58043 137.638 7.27032 137.534 7.93366C136.94 11.4892 136.914 15.1244 137.405 18.7065C137.741 21.068 138.335 21.9967 137.818 24.199C136.837 28.2322 132.885 30.6733 128.959 29.6915C128.727 29.6385 128.469 29.5589 128.236 29.4793C127.616 31.4693 125.55 32.5307 123.613 31.8939C122.502 31.5224 121.624 30.6202 121.263 29.4793C117.466 30.8856 113.282 28.869 111.913 24.9685C111.809 24.7032 111.732 24.4113 111.68 24.1194C111.215 22.0232 111.758 21.2007 112.094 18.9453C112.61 15.3101 112.584 11.6219 111.99 7.98673C111.887 7.29685 111.758 6.6335 111.603 5.97015C113.747 7.40299 115.735 8.43781 117.595 10.1891C118.861 11.3566 119.584 13.0282 119.506 14.7794C119.506 15.9204 119.196 17.0348 118.628 17.9901C117.853 17.5124 116.949 17.2471 116.045 17.2471C115.968 17.2471 115.89 17.2471 115.787 17.2471C116.458 16.6103 116.82 15.7081 116.82 14.7529C116.846 13.8507 116.51 12.9751 115.864 12.3648C115.58 12.073 115.27 11.8342 114.935 11.6219C114.96 12.2056 114.986 12.7894 114.986 13.3997C115.012 14.9121 114.935 16.4245 114.78 17.9104C117.182 17.2206 119.687 18.6534 120.384 21.1476C120.978 23.2968 119.997 25.6053 118.034 26.5871C116.639 26.3217 115.477 25.34 114.935 23.9867C115.787 24.597 116.949 24.3847 117.543 23.5091C118.137 22.6335 117.931 21.4395 117.078 20.8292C116.768 20.5904 116.381 20.4842 115.994 20.4842C114.082 20.4842 113.927 22.4743 114.341 23.8541C115.115 26.3483 117.698 27.728 120.152 26.9585C120.875 26.7197 121.547 26.2952 122.063 25.738L122.089 25.7114C123.51 24.1725 123.38 22.66 123.38 20.8292V15.0713C121.986 14.5141 121.056 13.1078 121.056 11.5688C121.056 11.3566 121.082 11.1443 121.108 10.932C118.396 10.4013 116.639 7.72139 117.156 4.93532C117.208 4.59038 117.311 4.27197 117.44 3.92703C118.809 3.34328 120.359 3.42289 121.65 4.11277C121.908 2.28192 123.071 0.716418 124.724 0C126.377 0.716418 127.565 2.28192 127.771 4.11277C129.088 3.42289 130.638 3.34328 131.981 3.92703C133.04 6.52736 131.826 9.52571 129.295 10.6136C128.985 10.7463 128.649 10.8524 128.314 10.9055C128.339 11.1177 128.365 11.33 128.365 11.5423C128.365 13.0813 127.435 14.4876 126.041 15.0448V20.5904C126.067 22.4743 125.912 24.0398 127.358 25.6053ZM124.724 10.534C124.181 10.534 123.716 10.9851 123.716 11.5688C123.716 12.126 124.155 12.6036 124.724 12.6036C125.266 12.6036 125.731 12.1526 125.731 11.5688C125.731 10.9851 125.292 10.534 124.724 10.534ZM119.248 5.75788C119.17 7.34992 120.359 8.70315 121.908 8.80929C121.572 9.15423 121.314 9.57877 121.133 10.0299C121.082 10.1625 121.133 10.2952 121.263 10.3483C121.392 10.4013 121.521 10.3483 121.572 10.2156C122.296 8.43781 124.31 7.58872 126.041 8.33167C126.867 8.67662 127.513 9.3665 127.875 10.2156C127.926 10.3483 128.081 10.4013 128.184 10.3483C128.288 10.2952 128.365 10.136 128.314 10.0299C128.133 9.57877 127.875 9.18076 127.539 8.80929C129.088 8.72968 130.277 7.37645 130.199 5.75788C128.649 5.67828 127.306 6.92537 127.229 8.51741C127.1 8.41128 126.971 8.30514 126.841 8.22554C126.635 8.09287 126.402 7.9602 126.17 7.85406L127.229 5.57214C127.28 5.43947 127.229 5.3068 127.126 5.2272C126.996 5.17413 126.867 5.2272 126.79 5.33333L125.705 7.66832C125.033 7.48259 124.336 7.48259 123.665 7.66832L122.58 5.33333C122.528 5.20066 122.373 5.1476 122.244 5.2272C122.115 5.28027 122.063 5.43947 122.141 5.57214L123.2 7.85406C122.812 8.01327 122.476 8.22554 122.167 8.51741C122.115 6.92537 120.798 5.67828 119.248 5.75788ZM124.724 2.5738C123.561 3.66169 123.484 5.49254 124.543 6.68657C124.594 6.76617 124.672 6.81924 124.724 6.8723C125.886 5.78441 125.963 3.95357 124.904 2.75954C124.853 2.70647 124.801 2.6534 124.724 2.5738ZM125.473 27.5688L124.724 26.6401L123.974 27.5423C123.613 27.9668 123.665 28.6036 124.078 28.9751C124.491 29.3466 125.111 29.2935 125.473 28.869C125.808 28.4975 125.808 27.9403 125.473 27.5688Z" fill="#CFA631"/>
<path d="M43.1331 26.6134L46.9556 30.0628H48.9186L44.3728 25.897L44.0112 25.5786L44.3728 25.2601L48.9186 21.1208H46.9815L43.1589 24.5703L42.4615 25.2071V21.1208H40.9118V30.0628H42.4615V25.9766L43.1331 26.6134ZM43.9854 9.84389H51.5272V7.95998H53.0769V11.4625H44.2437C43.5722 11.4359 43.0298 11.9666 42.9781 12.6565C42.9523 13.3464 43.4688 13.9036 44.1404 13.9567C44.1662 13.9567 44.2179 13.9567 44.2437 13.9567H53.3352V15.5487H44.0112C40.5761 15.4956 40.5761 9.84389 43.9854 9.84389ZM71.9573 11.9931C71.9573 11.6747 71.8798 11.3829 71.7765 11.091C71.4924 10.4542 71.0017 9.92349 70.3818 9.65815C70.0719 9.52548 69.7361 9.47242 69.4003 9.47242H66.5851V8.22532H65.0354V9.47242H62.2201C61.8843 9.47242 61.5486 9.52548 61.2386 9.65815C60.6188 9.95003 60.128 10.4542 59.8439 11.091C59.7406 11.3829 59.6631 11.6747 59.6631 11.9931V13.8771H58.3459C58.1909 13.8771 58.0359 13.8505 57.9068 13.7709C57.7776 13.7179 57.6485 13.6117 57.5452 13.5056C57.4419 13.3994 57.3644 13.2668 57.2869 13.1341C57.2353 13.0014 57.1836 12.8422 57.1836 12.683V11.9401V2.65318H55.6339V12.8422C55.6339 13.1872 55.6856 13.5321 55.8147 13.8505C56.0988 14.4873 56.5896 14.9915 57.2094 15.2834C57.5194 15.416 57.8551 15.4691 58.1909 15.4691H71.9315V11.9931H71.9573ZM69.1421 11.0645C69.297 11.0645 69.4778 11.091 69.6328 11.1706C69.7878 11.2237 69.9169 11.3298 70.046 11.4625C70.1752 11.5951 70.2527 11.7278 70.3301 11.887C70.3818 12.0462 70.4335 12.2054 70.4335 12.3912V13.9301H66.6109V11.0645H69.1421ZM65.0354 13.9036H61.2128V12.3646C61.2128 12.2054 61.2386 12.0197 61.3161 11.8605C61.3678 11.7013 61.4711 11.5686 61.6002 11.4359C61.7035 11.3033 61.8585 11.2237 62.0135 11.1441C62.1684 11.091 62.3234 11.0379 62.5042 11.0379H65.0612L65.0354 13.9036ZM77.2779 11.9931V12.7361C77.2779 12.8953 77.2521 13.0545 77.1746 13.1872C77.0455 13.4525 76.8389 13.6913 76.5547 13.824C76.4256 13.8771 76.2706 13.9301 76.1157 13.9301H73.7911V15.5222H76.219C76.5547 15.5222 76.8905 15.4691 77.2004 15.3364C77.5104 15.2038 77.7945 14.9915 78.0269 14.7527C78.2594 14.5139 78.466 14.222 78.5952 13.9036C78.7243 13.5852 78.776 13.2402 78.776 12.8953V8.03958H77.2263L77.2779 11.9931ZM104.423 2.65318H99.2061V4.24522H104.423V2.65318ZM105.534 12.8422V6.52714H99.1286C98.8186 6.52714 98.5345 6.58021 98.2504 6.71288C97.9663 6.84555 97.708 7.03129 97.5014 7.27009C97.2689 7.5089 97.0882 7.80077 96.9848 8.09265C96.8815 8.38452 96.804 8.70293 96.804 9.02134C96.804 9.33975 96.8557 9.65815 96.9848 9.95003C97.114 10.2684 97.2948 10.5338 97.5014 10.7726C97.708 11.0114 97.9663 11.1971 98.2504 11.3298C98.5345 11.4625 98.8186 11.5155 99.1286 11.5155H102.615V10.4276H99.4902C99.3352 10.4276 99.1802 10.4011 99.0511 10.348C98.922 10.295 98.7928 10.1888 98.6895 10.0827C98.5862 9.97656 98.5087 9.84389 98.4312 9.71122C98.3796 9.57855 98.3279 9.41935 98.3279 9.26014C98.3279 9.10094 98.3537 8.94174 98.4054 8.80907C98.5345 8.51719 98.7411 8.30492 99.0253 8.17225C99.1544 8.11918 99.3094 8.09265 99.4643 8.09265H103.958V9.07441H103.984V12.8157H103.958C103.958 12.9218 103.907 13.0545 103.881 13.1606C103.829 13.2933 103.726 13.426 103.623 13.5321C103.519 13.6383 103.39 13.7179 103.261 13.7975C103.132 13.8505 102.977 13.9036 102.822 13.9036H96.0292V12.0993C96.0292 11.7543 95.9775 11.4094 95.8484 11.091C95.5643 10.4542 95.0736 9.92349 94.4537 9.65815C94.1437 9.52548 93.808 9.47242 93.4722 9.47242H87.0152V2.65318H85.4655V13.8771H83.4509C83.2959 13.8771 83.1409 13.8505 83.0118 13.7709C82.8826 13.7179 82.7535 13.6117 82.6502 13.5056C82.5469 13.3994 82.4694 13.2668 82.3919 13.1341C82.3403 13.0014 82.2886 12.8422 82.2886 12.683V11.9401V2.65318H80.7389V12.8422C80.7389 13.1872 80.7906 13.5321 80.9197 13.8505C81.2038 14.4873 81.6946 14.9915 82.3144 15.2834C82.6244 15.416 82.9601 15.4691 83.2959 15.4691H102.925C103.261 15.4691 103.597 15.416 103.907 15.2834C104.527 14.9915 105.043 14.4873 105.302 13.8505C105.456 13.5321 105.534 13.1872 105.534 12.8422ZM94.4795 13.9036H87.0152V11.0645H93.2139C93.3689 11.0645 93.5497 11.091 93.7047 11.1706C93.8596 11.2237 93.9888 11.3298 94.1179 11.4625C94.247 11.5951 94.3245 11.7278 94.402 11.887C94.4537 12.0462 94.5053 12.2054 94.5053 12.3912L94.4795 13.9036ZM4.39079 15.4956H18.6479V11.9135C18.6479 11.5686 18.5963 11.2237 18.4672 10.9053C18.183 10.2684 17.6923 9.73776 17.0724 9.47242C16.7625 9.33975 16.4267 9.28668 16.091 9.28668H11.6485L12.3717 8.54373L18.2864 2.52051H16.091L7.90342 10.9053H10.0988H15.8068C15.9618 10.9053 16.1426 10.9318 16.2976 11.0114C16.4526 11.0645 16.5817 11.1706 16.7108 11.3033C16.84 11.4359 16.9175 11.5686 16.9949 11.7278C17.0466 11.887 17.0983 12.0462 17.0983 12.232V13.9567H2.81527C2.6603 13.9567 2.47951 13.9301 2.32454 13.8505C2.0146 13.7179 1.78214 13.4525 1.653 13.1606C1.57552 12.9484 1.54969 12.7892 1.54969 12.6034V12.1523C1.54969 11.9931 1.57552 11.8339 1.653 11.6747C1.70466 11.5155 1.80797 11.3829 1.93711 11.2502C2.06625 11.1175 2.1954 11.0379 2.35036 10.9583C2.50533 10.9053 2.6603 10.8522 2.8411 10.8522H6.06962V9.26014H2.55699C2.22122 9.26014 1.88546 9.31321 1.57552 9.44588C1.26558 9.63162 1.0073 9.81736 0.749017 10.0827C0.516564 10.3215 0.309938 10.6134 0.180797 10.9318C0.0774846 11.2502 0 11.5951 0 11.9135V12.8422C0 13.1872 0.0516564 13.5321 0.180797 13.8505C0.309938 14.1689 0.516564 14.4608 0.749017 14.6996C0.981471 14.9384 1.26558 15.1507 1.57552 15.2834C1.88546 15.416 2.22122 15.4691 2.55699 15.4691L4.39079 15.4956ZM36.6502 2.65318H35.023V4.24522H36.6502V2.65318ZM33.1117 6.52714C32.8018 6.52714 32.5177 6.58021 32.2336 6.71288C31.9495 6.84555 31.6912 7.03129 31.4846 7.27009C31.2521 7.5089 31.0713 7.80077 30.968 8.09265C30.8647 8.38452 30.7872 8.70293 30.7872 9.02134C30.7872 9.33975 30.8389 9.65815 30.968 9.95003C31.0971 10.2684 31.2779 10.5338 31.4846 10.7726C31.6912 11.0114 31.9495 11.1971 32.2336 11.3298C32.5177 11.4625 32.8018 11.5155 33.1117 11.5155H36.5727V10.4276H33.4733C33.3184 10.4276 33.1634 10.4011 33.0342 10.3215C32.9051 10.2684 32.776 10.1623 32.6727 10.0562C32.5693 9.95003 32.466 9.81736 32.4144 9.68469C32.3627 9.55202 32.3111 9.39281 32.3111 9.23361C32.3111 9.0744 32.3369 8.9152 32.3885 8.78253C32.4402 8.64986 32.5435 8.51719 32.6468 8.41106C32.7501 8.30492 32.8793 8.22532 33.0084 8.14572C33.1376 8.09265 33.2925 8.03958 33.4475 8.03958H37.9416V12.7361C37.9416 12.8953 37.9158 13.0545 37.8383 13.1872C37.7092 13.4525 37.5025 13.6913 37.2442 13.7975C37.1151 13.8505 36.9601 13.9036 36.8052 13.9036H29.8832V12.0993C29.8832 11.7543 29.8316 11.4094 29.7024 11.091C29.4183 10.4542 28.9276 9.92349 28.3077 9.65815C27.9978 9.52548 27.662 9.47242 27.3262 9.47242H20.4818V11.0645H27.0938C27.2487 11.0645 27.4295 11.091 27.5845 11.1706C27.7395 11.2237 27.8686 11.3298 27.9978 11.4625C28.1269 11.5951 28.2044 11.7278 28.2819 11.887C28.3335 12.0462 28.3852 12.2054 28.3852 12.3912V13.9301H20.4818V15.5222H36.9343C37.2701 15.5222 37.6058 15.4691 37.9158 15.3364C38.5357 15.0446 39.0522 14.5404 39.3105 13.9036C39.4396 13.5852 39.4913 13.2402 39.4913 12.8953V6.52714H33.1117ZM105.353 28.4973C105.405 28.3646 105.456 28.2054 105.482 28.0462C105.508 27.887 105.534 27.7278 105.534 27.5686C105.534 27.2502 105.482 26.9318 105.353 26.6399C105.302 26.4807 105.224 26.348 105.147 26.2154C105.069 26.0827 104.992 25.9766 104.888 25.8704L104.837 25.8174C104.63 25.5786 104.372 25.3928 104.088 25.2601C103.803 25.1275 103.519 25.0744 103.209 25.0744H99.4902C99.3352 25.0744 99.1802 25.0479 99.0511 24.9948C98.922 24.9417 98.7928 24.8356 98.6637 24.7295L98.612 24.6764C98.5862 24.6233 98.5345 24.5968 98.5087 24.5437C98.457 24.4907 98.4312 24.4111 98.4054 24.358C98.3796 24.2784 98.3537 24.2253 98.3279 24.1457C98.3021 24.0661 98.3021 23.9865 98.3021 23.9069C98.3021 23.8273 98.3021 23.7477 98.3279 23.6681C98.3537 23.5885 98.3537 23.5089 98.4054 23.4558L98.4312 23.3762C98.457 23.3232 98.4829 23.2966 98.5087 23.2436C98.5604 23.1905 98.612 23.1109 98.6637 23.0578C98.7153 23.0048 98.767 22.9517 98.8445 22.8986C98.8961 22.8456 98.9736 22.819 99.0253 22.7925C99.1544 22.7394 99.3094 22.7129 99.4643 22.7129H104.888V21.1474H99.1028C98.9478 21.1474 98.7928 21.1739 98.6378 21.2004C98.4829 21.227 98.3537 21.28 98.2246 21.3331C98.0954 21.3862 97.9663 21.4658 97.8372 21.5719C97.708 21.6781 97.5789 21.7842 97.4756 21.9169L97.4239 21.9699C97.3206 22.0761 97.2431 22.2087 97.1656 22.3149C97.0882 22.4475 97.0107 22.5802 96.959 22.7394C96.9073 22.8721 96.8557 23.0313 96.8299 23.1905C96.804 23.3497 96.7782 23.5089 96.7782 23.6681C96.7782 23.8273 96.804 23.9865 96.8299 24.1457C96.8557 24.3049 96.9073 24.4376 96.959 24.5968C97.0107 24.756 97.0882 24.8887 97.1656 25.0213C97.2431 25.154 97.3206 25.2601 97.4239 25.3663L97.4756 25.4193C97.6822 25.6582 97.9405 25.8439 98.2246 25.9766C98.5087 26.1092 98.7928 26.1623 99.1028 26.1623H102.822C102.977 26.1623 103.132 26.1888 103.261 26.2684C103.339 26.295 103.39 26.3215 103.442 26.3746C103.494 26.4276 103.571 26.4542 103.623 26.5072C103.674 26.5603 103.726 26.6134 103.778 26.693C103.803 26.746 103.829 26.7726 103.855 26.8256L103.881 26.9053C103.907 26.9849 103.933 27.0379 103.958 27.1175C103.984 27.1971 103.984 27.2767 103.984 27.3563C103.984 27.4359 103.984 27.5155 103.958 27.5951C103.933 27.6747 103.933 27.7543 103.881 27.8074C103.855 27.887 103.829 27.9401 103.778 27.9931C103.726 28.0462 103.674 28.1258 103.623 28.1789C103.571 28.232 103.519 28.285 103.442 28.3381C103.39 28.3912 103.313 28.4177 103.235 28.4442C103.106 28.4973 102.951 28.5504 102.796 28.5504H97.3723V30.1159H103.158C103.313 30.1159 103.468 30.0893 103.623 30.0628C103.752 30.0363 103.881 30.0097 104.01 29.9567L104.062 29.9301C104.191 29.8771 104.32 29.7975 104.449 29.6913C104.578 29.5852 104.707 29.479 104.811 29.3729C104.914 29.2402 105.017 29.1076 105.121 28.9749C105.198 28.7892 105.276 28.63 105.353 28.4973ZM73.0163 29.8771C73.3004 30.0097 73.5845 30.0628 73.8944 30.0628H80.2998V23.7477C80.2998 23.4028 80.2482 23.0578 80.119 22.7394C79.9899 22.421 79.7833 22.1291 79.5508 21.8903C79.3184 21.6515 79.0342 21.4392 78.7243 21.3066C78.4144 21.1739 78.0786 21.1208 77.7428 21.1208H72.1898V22.7129H77.6137C77.7687 22.7129 77.9236 22.7394 78.0528 22.819C78.3111 22.9517 78.5435 23.164 78.6727 23.4558C78.7243 23.5885 78.7501 23.7477 78.7501 23.9069V28.4973H74.256C74.1011 28.4973 73.9461 28.4708 73.8169 28.3912C73.6878 28.3381 73.5587 28.232 73.4554 28.1258C73.352 28.0197 73.2746 27.887 73.1971 27.7543C73.1454 27.6217 73.1196 27.4625 73.1196 27.3033C73.1196 27.1441 73.1454 26.9849 73.1971 26.8522C73.2487 26.7195 73.352 26.5868 73.4554 26.4807C73.5587 26.3746 73.6878 26.295 73.8169 26.2154C73.9461 26.1623 74.1011 26.1358 74.256 26.1358H77.3554V25.0479H73.8944C73.5845 25.0479 73.3004 25.1009 73.0163 25.2336C72.7322 25.3663 72.4739 25.552 72.2673 25.7908C72.0348 26.0296 71.854 26.3215 71.7507 26.6134C71.6474 26.9053 71.5699 27.2237 71.5699 27.5421C71.5699 27.8605 71.6216 28.1789 71.7507 28.4708C71.8798 28.7892 72.0606 29.0545 72.2673 29.2933C72.4997 29.5587 72.758 29.7444 73.0163 29.8771ZM69.9169 24.9683V23.7477C69.9169 23.4028 69.8652 23.0578 69.7361 22.7394C69.607 22.421 69.4003 22.1291 69.1679 21.8903C68.9354 21.6515 68.6513 21.4392 68.3414 21.3066C68.0314 21.1739 67.6957 21.1208 67.3599 21.1208H61.187V22.7129H63.6406H67.1016C67.4374 22.7129 67.7473 22.8455 67.9798 23.0844C68.2122 23.3232 68.3414 23.6416 68.3414 23.9865V24.7295C68.3414 24.8887 68.3156 25.0744 68.2381 25.2336C68.1864 25.3928 68.0831 25.5255 67.954 25.6582C67.8506 25.7908 67.6957 25.8704 67.5407 25.95C67.3857 26.0031 67.2308 26.0562 67.05 26.0562H62.685V24.1457H61.1353V30.0893H62.685V27.1971L63.3565 27.7278L66.3526 30.0893H68.3672L66.0943 28.4177L65.0095 27.6217H67.2824C68.6771 27.6482 69.8394 26.4807 69.8394 25.0479C69.9169 25.0213 69.9169 24.9948 69.9169 24.9683ZM93.6013 23.9865V30.0628H95.151V23.7477C95.151 23.4028 95.0994 23.0578 94.9702 22.7394C94.8411 22.421 94.6345 22.1291 94.402 21.8903C94.1696 21.6515 93.8855 21.4392 93.5755 21.3066C93.2656 21.1739 92.9298 21.1208 92.594 21.1208H86.4211V30.0628H87.9708V22.7129H92.3358C92.6715 22.7129 92.9815 22.8455 93.2139 23.0844C93.4722 23.3232 93.6013 23.6681 93.6013 23.9865ZM56.5637 30.0628V22.7129H59.5598V21.1208H52.0438V22.7129H55.014V30.0628H56.5637ZM82.521 30.0628H84.0707V21.1208H82.521V30.0628ZM1.54969 24.013V25.0744H6.92195V26.1623H1.54969V30.0893H0V23.7477C0 23.4028 0.0516564 23.0578 0.180797 22.7394C0.309938 22.421 0.516564 22.1291 0.749017 21.8903C0.981471 21.6515 1.26558 21.4392 1.57552 21.3066C1.88546 21.1739 2.22122 21.1208 2.55699 21.1208H6.89613V22.7129H2.81527C2.47951 22.7129 2.16957 22.8455 1.93711 23.0844C1.67883 23.3232 1.54969 23.6681 1.54969 24.013ZM31.562 29.8771C31.8462 30.0097 32.1303 30.0628 32.4402 30.0628H38.8198V23.7477C38.8198 23.4028 38.7681 23.0578 38.639 22.7394C38.5098 22.421 38.3032 22.1291 38.0707 21.8903C37.8383 21.6515 37.5542 21.4392 37.2442 21.3066C36.9343 21.1739 36.5985 21.1208 36.2628 21.1208H30.7097V22.7129H36.1336C36.2886 22.7129 36.4436 22.7394 36.5727 22.819C36.7019 22.8721 36.831 22.9782 36.9343 23.0844C37.0376 23.1905 37.1151 23.3232 37.1926 23.4558C37.2442 23.5885 37.2959 23.7477 37.2701 23.9069V28.4973H32.8018C32.6468 28.4973 32.4919 28.4708 32.3627 28.3912C32.2336 28.3381 32.1044 28.232 32.0011 28.1258C31.8978 28.0197 31.8203 27.887 31.7428 27.7543C31.6137 27.4625 31.6137 27.1441 31.7428 26.8522C31.7945 26.7195 31.8978 26.5868 32.0011 26.4807C32.1044 26.3746 32.2336 26.295 32.3627 26.2154C32.4919 26.1623 32.6468 26.1358 32.8018 26.1358H35.9012V25.0479H32.4402C32.1303 25.0479 31.8462 25.1009 31.562 25.2336C31.2779 25.3663 31.0197 25.552 30.813 25.7908C30.5806 26.0296 30.3998 26.3215 30.2965 26.6134C30.1931 26.9053 30.1157 27.2237 30.1157 27.5421C30.1157 27.8605 30.1673 28.1789 30.2965 28.4708C30.4256 28.7892 30.6064 29.0545 30.813 29.2933C31.0197 29.5587 31.2779 29.7444 31.562 29.8771ZM10.4088 29.8771C10.6929 30.0097 10.977 30.0628 11.2869 30.0628H17.6923V23.7477C17.6923 23.4028 17.6407 23.0578 17.5115 22.7394C17.3824 22.421 17.1757 22.1291 16.9433 21.8903C16.7108 21.6515 16.4267 21.4392 16.1168 21.3066C15.8069 21.1739 15.4711 21.1208 15.1353 21.1208H9.58226V22.7129H15.0062C15.1611 22.7129 15.3161 22.7394 15.4453 22.819C15.5744 22.8721 15.7035 22.9782 15.8068 23.0844C15.9102 23.1905 15.9876 23.3232 16.0651 23.4558C16.1168 23.5885 16.1426 23.7477 16.1426 23.9069V28.4973H11.6485C11.4935 28.4973 11.3386 28.4708 11.2094 28.3912C11.0803 28.3381 10.9512 28.232 10.8478 28.1258C10.7445 28.0197 10.667 27.887 10.5896 27.7543C10.4604 27.4625 10.4604 27.1441 10.5896 26.8522C10.6412 26.7195 10.7445 26.5868 10.8478 26.4807C10.9512 26.3746 11.0803 26.295 11.2094 26.2154C11.3386 26.1623 11.4935 26.1358 11.6485 26.1358H14.7479V25.0479H11.3127C11.0028 25.0479 10.7187 25.1009 10.4346 25.2336C10.1505 25.3663 9.89219 25.552 9.68557 25.7908C9.45312 26.0296 9.27232 26.3215 9.16901 26.6134C9.06569 26.9053 8.98821 27.2237 8.98821 27.5421C8.98821 27.8605 9.03986 28.1789 9.16901 28.4708C9.29815 28.7892 9.47894 29.0545 9.68557 29.2933C9.86637 29.5587 10.1246 29.7444 10.4088 29.8771ZM28.2819 28.4442C28.411 28.1258 28.4627 27.7809 28.4627 27.4359V23.7477C28.4627 23.4028 28.411 23.0578 28.2819 22.7394C28.1527 22.421 27.9461 22.1291 27.7136 21.8903C27.4812 21.6515 27.1971 21.4392 26.8871 21.3066C26.5772 21.1739 26.2414 21.1208 25.9057 21.1208H19.7586V22.7129H25.6732C25.8282 22.7129 26.009 22.7394 26.164 22.819C26.3189 22.8721 26.4481 22.9782 26.5772 23.1109C26.8097 23.3497 26.9388 23.6681 26.9388 24.013V27.1971C26.9388 27.3563 26.913 27.5421 26.8355 27.7013C26.7838 27.8605 26.6805 27.9931 26.5514 28.1258C26.3189 28.3646 26.009 28.4973 25.6732 28.4973H21.2824V24.1457H19.7327V30.0628H25.9057C26.2414 30.0628 26.5772 30.0097 26.8871 29.8771C27.1971 29.7444 27.4812 29.5321 27.7136 29.2933C27.9461 29.0545 28.1527 28.7626 28.2819 28.4442Z" fill="#47484A"/>
</g>
<defs>
<clipPath id="clip0_42555_117">
<rect width="138" height="32" fill="white"/>
</clipPath>
</defs>
</svg>
