<svg width="105" height="48" viewBox="0 0 105 48" fill="none" xmlns="http://www.w3.org/2000/svg">
<g clip-path="url(#clip0_42332_30503)">
<path d="M59.7216 9.59348C60.0245 8.89153 60.4958 7.98902 61.4048 8.05587C63.9296 8.05587 66.4545 8.02245 68.9793 8.05587C69.1813 8.05587 69.316 8.05587 69.2486 8.45699C69.215 8.79125 59.1829 33.2258 59.0146 33.6603C58.8126 34.1951 58.476 34.6965 57.9373 34.9305C57.7017 35.0308 57.466 35.0642 57.1967 35.0308C54.8738 35.0308 52.551 35.0308 50.1945 35.0308C49.8578 35.0977 49.5548 34.73 49.5885 34.3957C49.6895 33.9612 49.8915 33.56 50.0598 33.1255C50.1608 32.8581 50.2618 32.6241 50.3628 32.3567C50.7331 31.5879 50.9688 30.7857 51.3391 30.0169C51.541 29.4486 51.7767 28.9138 52.0124 28.3456C52.0797 28.1784 52.147 27.9779 52.2143 27.8107C52.4163 27.3762 52.5847 26.9751 52.753 26.5406C52.8876 26.2063 53.056 25.8386 53.1906 25.5043C53.2916 25.2369 53.3926 25.0029 53.4936 24.7355C53.6283 24.3678 53.7629 24.0336 53.9312 23.6659C54.0659 23.2314 54.2342 22.7968 54.4362 22.3957C54.6719 21.794 54.9075 21.1589 55.1768 20.5573C55.3452 20.1896 55.4798 19.7885 55.6145 19.4208C55.7155 19.1868 55.8165 18.9528 55.9175 18.7188C56.0858 18.3511 56.2204 17.9834 56.3551 17.5823C56.5571 17.1478 56.7254 16.7467 56.8937 16.3121C56.9611 16.1116 57.0284 15.9445 57.0957 15.7439C57.2977 15.3428 57.466 14.9082 57.6343 14.4737C57.9373 13.872 58.1393 13.2704 58.375 12.6353C58.577 12.2007 58.7453 11.7996 58.9136 11.3651C59.2839 10.8302 59.5196 10.1951 59.7216 9.59348Z" fill="#2A3491"/>
<path d="M81.6687 7.88867C81.0291 7.9221 80.3894 7.85525 79.7498 8.0558C78.9082 8.62405 78.7062 9.66026 78.3359 10.5293C78.2349 10.7633 78.1003 11.0307 77.9993 11.2981C77.9319 11.4653 77.8646 11.6658 77.7973 11.833C77.6626 12.1672 77.4943 12.5349 77.3596 12.8692C77.2586 13.1366 77.1576 13.3706 77.0566 13.638C76.8547 14.0725 76.6863 14.5071 76.518 14.9416C76.3834 15.3093 76.2487 15.6435 76.0804 16.0112C75.9794 16.2786 75.8784 16.5126 75.7774 16.78C75.7101 16.9806 75.5417 17.3817 75.4071 17.7494C75.3061 18.0168 74.9358 18.8859 74.8011 19.1199C74.5318 19.7215 74.2961 20.3232 74.0605 20.9249C73.8922 21.3594 73.7238 21.794 73.5219 22.1951C73.3199 22.7633 73.0169 23.3316 72.8486 23.8998L72.7476 23.9332C72.6466 24.3344 72.4783 24.7355 72.3099 25.1366C72.2089 25.3706 72.1079 25.6045 72.0406 25.8385C71.906 26.2062 71.7376 26.6073 71.5693 26.975C71.2663 27.6101 71.0643 28.2786 70.7614 28.9472C70.593 29.3149 70.4247 29.716 70.2901 30.0837C70.0207 30.6853 69.7514 31.287 69.5494 31.8887C69.3811 32.3232 69.1791 32.7578 69.0108 33.1923C68.7415 33.6937 68.5732 34.2619 68.6742 34.8302C68.7752 34.897 69.0108 34.9973 69.1118 35.0642C69.6841 34.9973 70.2901 35.2313 70.795 34.9305C70.8624 34.9305 70.9633 34.9305 70.997 34.9305C71.6703 34.4625 71.9396 33.6937 72.2089 32.9917C72.4109 32.4569 72.6129 31.9221 72.8486 31.4207C73.0169 30.9862 73.1852 30.5516 73.3872 30.1171C73.5219 29.7494 73.6902 29.3483 73.8585 28.9806C73.9258 28.78 73.9595 28.6129 74.0268 28.4458C74.4645 27.5767 74.8011 26.6408 75.2051 25.7383C75.4744 25.1366 75.6764 24.5015 75.9794 23.9332C76.1814 23.365 76.417 22.8302 76.6527 22.2619C76.8547 21.8274 77.023 21.3928 77.1913 20.9917C77.2923 20.8246 77.3596 20.624 77.3596 20.4235C77.5953 19.9555 77.7636 19.5878 77.9319 19.1533C78.2012 18.5516 78.4369 17.95 78.6726 17.3483C79.0092 16.5461 80.6588 12.5015 80.9281 11.9332C81.1637 11.3316 81.3994 10.6965 81.6687 10.0948C81.9044 9.35942 82.544 8.28979 81.6687 7.88867Z" fill="#2A3491"/>
<path d="M7.50568 35.2312C12.0167 35.1978 16.5278 35.1978 21.0052 35.1978C21.4428 35.1978 21.8805 35.2312 22.3181 35.1309C22.3855 34.429 22.3181 32.6908 23.0587 31.1198C23.2944 30.5515 23.934 29.6156 23.9677 29.5153C24.8766 28.2117 26.2232 27.2758 27.7718 26.8412C28.9501 26.7409 30.1956 26.7075 31.2729 27.2758C34.1681 28.6128 35.7503 31.9554 35.582 35.0306C36.6929 35.298 37.8712 34.9304 38.9821 35.1643L39.1168 35.0641C39.7227 35.0306 40.3624 35.1643 40.9683 35.1309C42.0793 35.0306 43.2239 35.1643 44.3348 35.0306C45.5804 34.5292 46.321 33.3928 46.8933 32.2228C47.0953 31.6546 47.3309 31.1198 47.5666 30.5515C47.6339 30.3844 47.7013 30.1838 47.7686 30.0167C47.8696 29.7493 47.9706 29.5153 48.1052 29.2813C48.1726 29.1142 48.2399 28.9136 48.3072 28.7131C48.5765 28.1114 48.8122 27.5098 49.0478 26.8747C49.1825 26.507 49.3172 26.1727 49.4855 25.8384C49.6538 25.4039 49.7885 24.9694 49.9905 24.5348C50.0578 24.3677 50.1251 24.1671 50.1924 24C50.4281 23.4652 50.6637 22.8969 50.8657 22.3287C51.0004 21.961 51.135 21.6267 51.3034 21.2591C51.438 20.8579 51.6064 20.4903 51.7747 20.1226C51.842 19.9554 51.9093 19.7549 51.9767 19.5877C52.246 18.9861 52.4816 18.3844 52.7173 17.7493C52.8519 17.415 52.9866 17.0474 53.1549 16.7131C53.2223 16.5125 53.2896 16.3454 53.3569 16.1783C53.5252 15.8106 53.6599 15.4429 53.7946 15.0418C53.8619 14.8747 53.9292 14.6741 53.9965 14.507C54.2322 13.9053 54.5015 13.3036 54.7372 12.702C54.8045 12.5348 54.8718 12.3677 54.9728 12.2006C55.0401 12 55.1075 11.8329 55.2085 11.6657C55.6461 10.3955 56.6224 8.28969 53.8956 8.08914C47.1963 8.08914 40.5307 8.08914 33.8314 8.12256C33.1918 8.12256 31.9125 8.08914 31.9125 8.08914C31.4749 8.08914 30.9026 8.05571 30.5996 8.08914C30.2966 8.12256 29.9263 8.52368 29.6907 8.79109C29.0847 9.55989 28.5797 10.3955 28.0748 11.2312C27.3342 12.5348 26.6945 13.8719 26.0549 15.2089C25.8866 15.5432 25.7519 15.844 25.6173 16.1783C25.3816 16.6462 25.1796 17.1142 24.944 17.5822C24.843 17.8496 24.641 18.0836 24.742 18.4178C24.8766 18.7855 25.2806 18.7855 25.3143 18.7855C29.96 18.8189 34.6057 18.8189 39.2514 18.8189C39.2514 19.1198 39.2514 19.4206 39.2514 19.7214C39.1504 19.7549 34.1007 19.7549 34.1007 19.7549C32.4175 19.7883 30.7343 19.7214 29.051 19.7883C28.1084 19.7549 24.8093 19.9554 23.9004 19.8217C23.631 19.7214 22.3854 19.3538 23.0924 17.6156C23.5637 16.9136 23.8667 16.1448 24.3043 15.4429C24.9103 14.273 25.5163 13.1365 26.1222 12C26.5262 11.1978 26.9638 10.429 27.4015 9.62674C27.9065 8.72423 28.3778 7.82173 28.8827 6.91922C29.0847 6.51811 29.455 6.28412 29.8253 6.08357H29.5897C32.4848 6.01671 35.3463 6.05014 38.2415 5.98329C39.5881 6.05014 40.9347 6.05014 42.2812 5.98329C43.9981 6.08357 45.715 6.05014 47.4319 6.01671L47.5666 5.98329C48.2399 6.15042 48.9468 6.01671 49.6538 6.05014C60.4265 6.05014 71.1992 5.98329 81.9719 6.01671C84.1601 5.84958 86.3819 5.91643 88.6038 5.91643C91.5999 5.91643 94.5961 5.91643 97.5922 5.91643C98.0635 5.91643 98.5349 5.94986 98.9725 5.7493C99.2418 5.78273 99.3765 5.51532 99.5111 5.31476C99.7468 4.61281 100.083 3.94429 100.285 3.24234C100.386 3.00836 100.487 2.77437 100.588 2.57382C100.858 1.77159 101.363 0.969359 101.228 0.0668524C99.4101 0 97.5586 0 95.7407 0C89.8157 0.0668524 83.8571 0 77.9321 0.0334262C72.6468 0.133705 67.3614 0 62.0761 0.100279C61.9414 0.100279 60.6621 0.0668524 60.2245 0.100279C55.0738 0.100279 50.0241 0.200557 44.8734 0.200557C38.6118 0.300836 32.3838 0.167131 26.1222 0.267409C25.9202 0.300836 25.6173 0.233983 24.439 0.902507H24.4727C23.6647 1.2702 22.9914 1.97214 22.3518 2.60724C19.5576 5.44847 16.7298 8.35655 13.8346 11.1978C11.3098 13.7382 8.78493 16.2451 6.29375 18.7855C4.61052 20.5237 2.69164 22.0613 1.5807 24.2006C1.27772 24.8022 0.974739 25.4373 0.873745 26.1058C0.772751 27.0418 0.638092 28.0111 0.806416 28.9471C0.941074 29.7827 1.27772 30.585 1.5807 31.3538C2.38865 32.8914 3.83623 34.0613 5.38481 34.7967C6.0581 35.1309 6.6304 35.1643 7.50568 35.2312Z" fill="#2A3390"/>
<path d="M27.4022 28.5461C28.6814 28.0781 30.129 28.2118 31.3073 28.8804C33.4618 30.1171 34.5727 32.6909 34.5391 35.0642C33.8321 35.2648 33.1252 34.9973 32.4182 35.131C32.1152 35.131 31.8122 35.131 31.4756 35.131C28.8161 35.0976 26.1229 35.2313 23.4634 35.1645C23.3624 34.1283 23.5644 33.1255 23.9347 32.1561C24.002 31.989 24.103 31.8219 24.1704 31.6213C24.81 30.2842 25.9546 29.0475 27.4022 28.5461Z" fill="#2A3491"/>
<path d="M77.1271 8.05594C75.9488 7.98909 74.7369 8.02252 73.5586 8.02252C73.121 8.05594 72.5823 7.95566 72.2457 8.35678C71.6061 8.85817 67.0613 20.1228 67.0613 20.1228C66.9267 20.5239 63.2236 29.6493 63.2236 29.6493C63.1226 29.8498 62.6513 30.9529 62.6513 30.9529C62.4829 31.4208 61.3047 34.3958 61.3047 34.6632C61.3047 34.8303 61.3047 35.0309 61.7087 35.0309C62.1126 35.0309 64.2335 35.0309 65.4791 35.0309C65.5128 35.0309 65.5801 35.0309 65.6138 35.0309H65.6474C66.0514 34.9974 66.1524 34.8637 66.1524 34.8637C66.5227 34.4292 67.5663 32.2565 67.802 31.6548C67.9366 31.3206 68.1049 30.9529 68.2396 30.6186C68.3406 30.3846 68.4416 30.1172 68.5426 29.8832C68.5426 29.8832 68.8456 29.1479 69.0139 28.7802C69.1822 28.3456 69.7545 26.9752 69.8555 26.7412C70.1921 25.9724 70.4951 25.1701 70.8318 24.4013C70.9328 24.1339 71.0338 23.9 71.1348 23.6325C71.2694 23.2983 71.4377 22.9306 71.5724 22.5963C71.7407 22.1618 71.909 21.7273 72.111 21.2927C72.1784 21.1256 72.2457 20.9584 72.313 20.7579C72.4813 20.3234 72.6497 19.8888 72.8517 19.4543C73.0536 18.886 73.5923 17.6827 73.5923 17.6827C73.7269 17.2816 74.4002 15.6437 74.6022 15.2091C74.6695 15.042 74.7369 14.8415 74.8042 14.6743C75.0062 14.2398 75.1745 13.8387 75.3428 13.4041C75.5112 13.0699 75.6458 12.7022 75.7805 12.3679C75.8815 12.1005 75.9825 11.8665 76.0835 11.5991C76.3528 10.9974 76.5884 10.3958 76.8241 9.76068C77.0934 8.79132 77.3627 8.02252 77.1271 8.05594Z" fill="#2A3491"/>
<path d="M0.908945 45.2258C0.572299 45.2258 0.403976 45.0586 0.403976 44.7578C0.403976 44.3901 0.605963 44.223 1.00994 44.223C1.1446 44.223 1.24559 44.2564 1.38025 44.3233L1.51491 44.0558C1.34659 43.989 1.17826 43.9556 1.00994 43.9556C0.740622 43.9556 0.538634 44.0224 0.370311 44.1895C0.201988 44.3567 0.134659 44.5238 0.134659 44.7578C0.134659 45.0586 0.336646 45.2926 0.706957 45.4932L0 45.794L0.168323 46.0614L2.01988 45.2258L1.85155 44.9584C1.48124 45.1255 1.17826 45.2258 0.908945 45.2258Z" fill="#2A3491"/>
<path d="M7.74373 42.9862H5.55553L5.69019 43.755H7.23876C7.64274 43.755 7.91205 43.755 8.01305 43.7884C8.28236 43.8553 8.48435 43.989 8.58535 44.1895C8.11404 44.4235 7.74373 44.5907 7.50808 44.7244C7.1041 44.8915 6.90211 44.9918 6.86845 45.0252C6.43081 45.1923 5.72385 45.2926 4.74758 45.326C4.3436 45.326 4.10795 45.2926 4.04062 45.2258C3.90596 45.1589 3.83863 44.9249 3.83863 44.5572V41.248H2.92969V44.8915C2.92969 45.2592 3.03068 45.5266 3.23267 45.6937C3.46832 45.8943 3.8723 46.028 4.41093 46.0614C4.54559 46.0614 4.64658 46.0614 4.74758 46.0614C4.78124 46.0614 4.78124 46.0614 4.81491 46.0614C5.38721 46.0614 5.79118 46.028 5.99317 46.028C6.5318 45.9611 7.00311 45.8274 7.50808 45.5934L9.56162 44.5907C9.56162 43.521 8.95566 42.9862 7.74373 42.9862Z" fill="#2A3491"/>
<path d="M5.72166 46.9639C5.28402 46.9639 5.08203 47.131 5.08203 47.4318C5.08203 47.599 5.14936 47.7327 5.28402 47.833C5.41868 47.9332 5.55334 47.9667 5.75532 47.9667C5.92365 47.9667 6.09197 47.8998 6.19296 47.7995C6.29396 47.6992 6.36129 47.5655 6.36129 47.4318C6.36129 47.131 6.1593 46.9639 5.72166 46.9639Z" fill="#2A3491"/>
<path d="M12.5892 46.0946C12.5892 46.4623 12.4209 46.7297 12.0506 46.9303C11.7476 47.0974 11.3773 47.1977 10.9396 47.1977H9.92969L10.0643 47.9999H11.2426C11.8822 47.9999 12.4209 47.7994 12.8585 47.3648C13.2625 46.9637 13.4645 46.4958 13.4645 45.9275V43.6545H12.5555V46.0946H12.5892Z" fill="#2A3491"/>
<path d="M21.748 45.0585C21.5123 44.9917 21.041 44.9582 20.3341 44.9582C20.3341 44.4903 20.4014 44.1894 20.4351 44.0891C20.5697 43.8552 20.7717 43.7215 21.1084 43.7215H22.1856L22.152 42.9861H21.0747C20.6034 42.9861 20.2331 43.1198 19.9301 43.3872C19.6271 43.6546 19.4925 43.9554 19.4925 44.3566V45.6602H20.7381C20.7717 45.6602 20.839 45.6602 20.9737 45.6936C21.3777 45.7605 21.5797 45.9276 21.5797 46.195C21.5797 46.4958 21.445 46.7298 21.142 46.9304C20.8727 47.1309 20.5361 47.2312 20.1994 47.2312H19.0548C18.6508 47.2312 18.3142 47.1309 18.0449 46.9304C17.7419 46.7298 17.6072 46.429 17.6072 46.0947V44.4234H16.7656V45.9944C16.7656 46.5293 16.9676 46.9972 17.3379 47.3649C17.7419 47.766 18.2469 47.9666 18.8528 47.9666H20.2331C20.6707 47.9666 21.1084 47.8663 21.4787 47.6657C22.1183 47.2981 22.4213 46.7632 22.4213 45.9944C22.4213 45.5265 22.1856 45.2256 21.748 45.0585Z" fill="#2A3491"/>
<path d="M29.456 41.9164C29.6244 41.9164 29.759 41.8495 29.8937 41.7492C30.0283 41.649 30.0957 41.5152 30.0957 41.3815C30.0957 41.0807 29.8937 40.9136 29.456 40.9136C29.0521 40.9136 28.8164 41.0807 28.8164 41.3815C28.8164 41.7158 29.0184 41.9164 29.456 41.9164Z" fill="#2A3491"/>
<path d="M30.3978 42.5851C30.0949 42.4179 29.7919 42.3511 29.4216 42.3511C28.9839 42.3511 28.6473 42.4514 28.378 42.6853C28.1086 42.9193 27.974 43.2202 27.974 43.5878C27.974 44.1227 28.2096 44.4904 28.7146 44.6241C29.2869 44.6575 29.8255 44.6909 30.2968 44.6909C30.2968 45.0586 30.1285 45.2592 29.7919 45.2592H27.4017C26.7621 45.2592 26.4254 45.0586 26.4254 44.7243V43.6213H25.5501V46.0948C25.5501 46.4291 25.4155 46.6965 25.1125 46.897C24.8432 47.0976 24.5065 47.1979 24.1362 47.1979H22.8906L23.0253 47.9667H24.1699C24.9105 47.9667 25.4491 47.7327 25.8531 47.2647C26.2234 46.8302 26.3917 46.2954 26.3917 45.6603C26.5264 45.8274 26.7621 45.9611 27.0314 45.9945V46.028H29.6909C30.0612 46.028 30.4315 45.9277 30.7008 45.6937C31.0038 45.4597 31.1385 45.1589 31.1048 44.8246L31.0375 43.8553C31.1385 43.287 30.8691 42.8525 30.3978 42.5851ZM29.5562 43.989C29.2532 43.989 29.0513 43.989 29.0176 43.9555C28.8829 43.8887 28.7819 43.755 28.7819 43.5544C28.7819 43.287 28.9839 43.1533 29.3542 43.1533C29.8929 43.1533 30.1622 43.4207 30.1958 43.989H29.5562Z" fill="#2A3491"/>
<path d="M44.1669 42.9862C43.1233 42.9862 42.5847 43.521 42.5847 44.5572C42.5847 44.9249 42.551 45.1255 42.5174 45.1589C42.45 45.2257 42.248 45.2592 41.9114 45.2926C41.5074 45.2592 41.3054 45.2592 41.2381 45.2257C41.0361 45.1255 40.9015 44.9918 40.9015 44.8246V43.6547H40.0262V44.9249C40.0262 45.2592 39.8242 45.3929 39.4202 45.3929C39.2182 45.3929 39.0162 45.326 38.8816 45.2257C38.7133 45.092 38.6459 44.9583 38.6459 44.7912V43.6547H37.7706V44.9249C37.7706 45.2592 37.5687 45.3929 37.1647 45.3929C36.9627 45.3929 36.7607 45.326 36.626 45.2257C36.4577 45.1255 36.3904 44.9583 36.3904 44.7912V43.6547H35.5151V44.6241C35.5151 44.8915 35.4478 45.092 35.2795 45.1923C35.1448 45.2592 34.9092 45.2926 34.6062 45.2926H34.3032C33.8655 45.2926 33.5962 45.2592 33.4952 45.1923C33.3606 45.1255 33.2932 44.8915 33.2932 44.5238V41.2146H32.418V44.8581C32.418 45.2257 32.519 45.4932 32.7209 45.6603C32.9566 45.8608 33.3606 45.9611 33.8655 46.028V46.0614C34.0002 46.0614 34.1012 46.0614 34.2022 46.0614C34.2359 46.0614 34.2695 46.0614 34.3032 46.0614C34.6398 46.0614 34.8755 46.0614 35.0101 46.028C35.4814 45.9611 35.8181 45.8274 36.0201 45.6269C36.3231 45.9945 36.727 46.1617 37.1983 46.1617C37.7033 46.1617 38.141 45.9945 38.4776 45.6603C38.8816 45.9945 39.2856 46.1617 39.6895 46.1617C40.0935 46.1617 40.4302 45.9945 40.7331 45.6603C40.8678 45.8274 41.0361 45.9611 41.2718 46.028C41.3391 46.0614 41.4738 46.0614 41.6421 46.0614C41.7094 46.0614 41.7431 46.0614 41.8104 46.0614C41.8777 46.0614 41.9114 46.0614 41.9787 46.0614C42.5174 46.028 42.9213 45.9945 43.157 45.8943C43.46 46.0948 43.7966 46.1951 44.1669 46.1951C44.6719 46.1951 45.0422 46.028 45.3452 45.7271C45.6145 45.4597 45.7155 45.092 45.7155 44.6575C45.7155 44.223 45.5808 43.8553 45.3452 43.5544C45.0422 43.1533 44.6719 42.9862 44.1669 42.9862ZM44.1333 45.3929C43.6283 45.3929 43.359 45.1255 43.359 44.5906C43.359 44.0224 43.6283 43.7216 44.1333 43.7216C44.6382 43.7216 44.9075 43.989 44.9075 44.5572C44.9075 45.1255 44.6382 45.3929 44.1333 45.3929Z" fill="#2A3491"/>
<path d="M53.6933 45.0585C53.4577 44.9917 52.9863 44.9582 52.2794 44.9582C52.2794 44.4903 52.3467 44.1894 52.3804 44.0891C52.515 43.8552 52.717 43.7215 53.0537 43.7215H54.1309L54.0973 42.9861H53.02C52.5487 42.9861 52.1784 43.1198 51.8754 43.3872C51.5724 43.6546 51.4378 43.9554 51.4378 44.3566V45.6602H52.6834C52.717 45.6602 52.7844 45.6602 52.919 45.6936C53.323 45.7605 53.525 45.9276 53.525 46.195C53.525 46.4958 53.3903 46.7298 53.0873 46.9304C52.818 47.1309 52.4814 47.2312 52.1447 47.2312H51.0001C50.5962 47.2312 50.2595 47.1309 49.9902 46.9304C49.6872 46.7298 49.5526 46.429 49.5526 46.0947V44.4234H48.7109V45.9944C48.7109 46.5293 48.9129 46.9972 49.2832 47.3649C49.6872 47.766 50.1922 47.9666 50.7981 47.9666H52.1784C52.616 47.9666 53.0537 47.8663 53.424 47.6657C54.0636 47.2981 54.3666 46.7632 54.3666 45.9944C54.3666 45.5265 54.1309 45.2256 53.6933 45.0585Z" fill="#2A3491"/>
<path d="M60.1939 42.3509L59.5206 42.8857L60.0929 43.4205C59.7562 43.1531 59.4196 43.0194 59.0156 43.0194C58.578 43.0194 58.2413 43.1531 57.972 43.3871C57.7027 43.6211 57.568 43.9219 57.568 44.2896C57.568 44.6239 57.7364 44.9916 58.073 45.3592H57.1977C56.7601 45.3592 56.4908 45.3258 56.3898 45.259C56.2551 45.1921 56.1878 44.9581 56.1878 44.5904V41.2812H55.3125V44.9247C55.3125 45.2924 55.4135 45.5598 55.6155 45.7269C55.8848 45.9275 56.2888 46.0612 56.8611 46.0946H57.0631C57.0967 46.0946 57.1641 46.0946 57.1977 46.0946H57.8373C58.3087 46.0946 58.7463 45.9943 59.1166 45.8272C59.8572 46.1949 60.4632 46.3955 60.9345 46.3955C61.3048 46.3955 61.6751 46.2618 61.9444 45.9943C62.2474 45.7269 62.3821 45.4261 62.3821 45.0918C62.4157 44.4567 61.6751 43.5542 60.1939 42.3509ZM59.1503 44.9581C58.679 44.791 58.4433 44.557 58.4433 44.2228C58.4433 44.0891 58.477 43.9553 58.578 43.8551C58.679 43.7548 58.8136 43.6879 58.9819 43.6879C59.1839 43.6879 59.3523 43.7548 59.5206 43.8551C59.6552 43.9553 59.7562 44.1225 59.7562 44.2896C59.7226 44.5904 59.5206 44.8244 59.1503 44.9581ZM60.9008 45.5598C60.6652 45.5598 60.3622 45.4595 60.0255 45.2924C60.3959 45.1253 60.5642 44.791 60.5642 44.323C60.5642 44.0222 60.4632 43.7548 60.2949 43.5877C61.0692 44.2562 61.4731 44.7576 61.4731 45.0584C61.4731 45.3927 61.2711 45.5598 60.9008 45.5598Z" fill="#2A3491"/>
<path d="M65.679 46.0946C65.679 46.4623 65.5107 46.7297 65.1404 46.9303C64.8374 47.0974 64.4671 47.1977 64.0295 47.1977H63.0195L63.1542 47.9999H64.3325C64.9721 47.9999 65.5107 47.7994 65.9484 47.3648C66.3523 46.9637 66.5543 46.4958 66.5543 45.9275V43.6545H65.6454V46.0946H65.679Z" fill="#2A3491"/>
<path d="M77.1916 41.9833C77.3599 41.9833 77.4946 41.9499 77.5956 41.8496C77.6966 41.7493 77.7639 41.6491 77.7639 41.5153C77.7639 41.2479 77.5619 41.0808 77.1579 41.0808C76.7876 41.0808 76.5856 41.2145 76.5856 41.5153C76.552 41.8162 76.754 41.9833 77.1916 41.9833Z" fill="#2A3491"/>
<path d="M75.4763 41.9833C75.6447 41.9833 75.7793 41.9499 75.8803 41.8496C75.9813 41.7493 76.0486 41.6491 76.0486 41.5153C76.0486 41.2479 75.8466 41.0808 75.4427 41.0808C75.0724 41.0808 74.8704 41.2145 74.8704 41.5153C74.8367 41.8162 75.0724 41.9833 75.4763 41.9833Z" fill="#2A3491"/>
<path d="M77.26 42.585C76.957 42.4179 76.654 42.351 76.2837 42.351C75.8461 42.351 75.5094 42.4513 75.2401 42.6853C74.9708 42.9193 74.8361 43.2201 74.8361 43.5878C74.8361 44.1226 75.0718 44.4903 75.5767 44.624C76.149 44.6575 76.6877 44.6909 77.159 44.6909C77.159 45.0586 76.9907 45.2591 76.654 45.2591H74.1965H73.9608H73.6242C73.6915 45.0586 73.7252 44.858 73.7252 44.5906C73.7252 43.8887 73.4559 43.4207 72.8836 43.1533C72.6479 43.053 72.4123 42.9861 72.2103 42.9861C71.739 42.9861 71.234 43.287 70.6617 43.8887V41.1477H69.7864V45.2926H69.5844C69.1468 45.2926 68.8775 45.2591 68.7765 45.1923C68.6418 45.1254 68.5745 44.8914 68.5745 44.5237V41.2146H67.6992V44.858C67.6992 45.2257 67.8002 45.4931 68.0022 45.6602C68.2379 45.8608 68.6418 45.9611 69.1468 46.0279V46.0614H73.9272H74.1628H76.5867C76.957 46.0614 77.3273 45.9611 77.5966 45.7271C77.8996 45.4931 78.0343 45.1923 78.0006 44.858L77.9333 43.8887C77.9669 43.287 77.7313 42.8524 77.26 42.585ZM76.4184 43.9889C76.1154 43.9889 75.9134 43.9889 75.8797 43.9555C75.7451 43.8887 75.6441 43.7549 75.6441 43.5544C75.6441 43.287 75.8461 43.1533 76.2164 43.1533C76.755 43.1533 77.0243 43.4207 77.058 43.9889H76.4184ZM72.7489 45.0586C72.6479 45.2257 72.5133 45.2926 72.3786 45.2926H70.6617C70.83 44.9583 71.0657 44.6575 71.3687 44.3566C71.739 43.9555 72.0756 43.7549 72.3786 43.7549C72.7489 43.7549 72.9172 43.9889 72.9172 44.4903C72.8499 44.7577 72.8162 44.9249 72.7489 45.0586Z" fill="#2A3491"/>
<path d="M84.1955 42.819C84.3638 42.819 84.4648 42.7856 84.5995 42.6853C84.7005 42.585 84.7678 42.4847 84.7678 42.351C84.7678 42.0836 84.5658 41.9165 84.1618 41.9165C83.7915 41.9165 83.5895 42.0502 83.5895 42.351C83.5559 42.6519 83.7579 42.819 84.1955 42.819Z" fill="#2A3491"/>
<path d="M85.9104 42.819C86.0787 42.819 86.2133 42.7856 86.3143 42.6853C86.4153 42.585 86.4827 42.4847 86.4827 42.351C86.4827 42.0836 86.2807 41.9165 85.8767 41.9165C85.4727 41.9165 85.3044 42.0502 85.3044 42.351C85.2707 42.6519 85.4727 42.819 85.9104 42.819Z" fill="#2A3491"/>
<path d="M92.7473 43.9555L90.9294 42.1839L93.2186 41.4485L93.084 40.6797L89.8185 41.7159L89.9532 42.585L92.276 44.6908C92.3434 44.7577 92.377 44.858 92.377 44.9582C92.377 45.1922 92.276 45.3259 92.0404 45.3259H89.5829C88.9432 45.3259 88.6066 45.1254 88.6066 44.7243V43.6546H87.6976V44.7243C87.6976 44.9582 87.664 45.0919 87.563 45.1922C87.462 45.2925 87.2937 45.3259 87.058 45.3259H82.9173C82.6816 45.3259 82.5133 45.2925 82.4123 45.1922C82.3113 45.0919 82.2776 44.9582 82.2776 44.7243V43.6546H81.4023V44.8245C81.4023 45.1588 81.5033 45.4262 81.739 45.6936C81.9746 45.961 82.3113 46.0947 82.6479 46.0947H87.3273C87.5966 46.0947 87.8996 45.9945 88.2026 45.7939C88.4046 45.961 88.7749 46.0613 89.2799 46.0947H92.074C92.983 46.0947 93.4206 45.7605 93.4206 45.0585C93.4206 44.9248 93.3533 44.7577 93.2523 44.624C93.0503 44.2897 92.882 44.0892 92.7473 43.9555Z" fill="#2A3491"/>
<path d="M101.733 41.9165C101.868 42.0168 102.003 42.0502 102.171 42.0502C102.339 42.0502 102.474 42.0168 102.575 41.9165C102.676 41.8163 102.743 41.716 102.743 41.5823C102.743 41.3149 102.541 41.1812 102.104 41.1812C101.733 41.1812 101.531 41.3149 101.531 41.5823C101.531 41.6825 101.599 41.8163 101.733 41.9165Z" fill="#2A3491"/>
<path d="M102.406 42.6519C102.406 42.7856 102.474 42.9193 102.608 42.9862C102.743 43.0531 102.878 43.1199 103.046 43.1199C103.214 43.1199 103.349 43.0865 103.45 42.9862C103.551 42.8859 103.618 42.7856 103.618 42.6519C103.618 42.3845 103.416 42.2508 102.979 42.2508C102.608 42.2174 102.406 42.3845 102.406 42.6519Z" fill="#2A3491"/>
<path d="M100.891 42.9861C101.026 43.0864 101.16 43.1198 101.329 43.1198C101.497 43.1198 101.598 43.0864 101.733 42.9861C101.867 42.8858 101.901 42.7856 101.901 42.6518C101.901 42.3844 101.699 42.2507 101.295 42.2507C100.925 42.2507 100.723 42.3844 100.723 42.6518C100.723 42.7856 100.756 42.8858 100.891 42.9861Z" fill="#2A3491"/>
<path d="M104.124 43.6545V44.9247C104.124 45.259 103.922 45.3927 103.484 45.3927C103.282 45.3927 103.08 45.3258 102.946 45.2256C102.811 45.1253 102.71 44.9582 102.71 44.791V43.6545H101.835V44.9247C101.835 45.259 101.633 45.3927 101.195 45.3927C100.993 45.3927 100.791 45.3258 100.657 45.2256C100.522 45.1253 100.455 44.9582 100.455 44.791V43.6545H99.5794V44.7242C99.5794 45.0919 99.3774 45.2924 98.9734 45.2924H98.2665C97.6268 45.2924 97.2902 45.0919 97.2902 44.7576V43.6545H96.4149V46.1281C96.4149 46.4623 96.2802 46.7297 95.9773 46.9303C95.7079 47.1309 95.3713 47.2311 95.001 47.2311H93.7891L93.9237 47.9999H95.0683C95.8089 47.9999 96.3476 47.766 96.7515 47.298C97.1219 46.8635 97.2902 46.3286 97.2902 45.6935C97.4248 45.8607 97.6268 45.9609 97.8961 46.0278V46.0612H99.0407C99.4111 46.0612 99.815 45.8941 100.219 45.5264C100.589 45.9275 100.993 46.1281 101.431 46.1281C101.801 46.1281 102.172 45.9609 102.508 45.5933C102.845 45.9275 103.249 46.1281 103.72 46.1281C104.124 46.1281 104.461 45.9944 104.663 45.727C104.865 45.493 104.966 45.1921 104.966 44.8245V43.6545H104.124Z" fill="#2A3491"/>
</g>
<defs>
<clipPath id="clip0_42332_30503">
<rect width="105" height="48" fill="white"/>
</clipPath>
</defs>
</svg>
